<svg width="3147" height="835" viewBox="0 0 3147 835" fill="none" xmlns="http://www.w3.org/2000/svg">
<path d="M658.537 73.1707H146.342C105.931 73.1707 73.1709 105.93 73.1709 146.341V687.805C73.1709 728.216 105.931 760.976 146.342 760.976H658.537C698.948 760.976 731.707 728.216 731.707 687.805V146.341C731.707 105.93 698.948 73.1707 658.537 73.1707Z" fill="black"/>
<path d="M434.057 393.868C436.44 392.915 439.763 393.212 441.604 395.958L441.778 396.231L441.882 396.402L441.956 396.589C442.94 399.048 442.591 402.511 439.593 404.31L439.583 404.316L439.574 404.321L433.928 407.642L433.854 407.685L433.778 407.723C433.284 407.971 432.795 408.152 432.241 408.244C431.75 408.326 431.283 408.319 431 408.319C428.702 408.319 426.979 407.118 425.931 405.546L425.787 405.329L425.69 405.088C424.707 402.628 425.055 399.165 428.054 397.366L428.062 397.36L428.072 397.355L433.718 394.034L433.881 393.938L434.057 393.868Z" fill="white" stroke="white" stroke-width="5"/>
<path d="M462.949 377.263C465.332 376.31 468.656 376.607 470.497 379.353L470.671 379.626L470.774 379.797L470.849 379.984C471.832 382.443 471.484 385.906 468.485 387.705L468.476 387.711L468.467 387.716L462.82 391.037L462.747 391.08L462.671 391.118C462.176 391.366 461.687 391.547 461.134 391.639C460.642 391.721 460.175 391.714 459.893 391.714C457.594 391.714 455.872 390.513 454.823 388.941L454.68 388.724L454.583 388.483C453.599 386.023 453.948 382.56 456.946 380.761L456.955 380.755L456.965 380.75L462.61 377.429L462.773 377.333L462.949 377.263Z" fill="white" stroke="white" stroke-width="5"/>
<path d="M361.108 395.567C362.696 392.92 366.146 391.57 369.169 393.37L374.814 396.69L374.936 396.761L375.047 396.845C377.218 398.474 378.309 401.644 377.197 404.424L377.101 404.665L376.956 404.882C376.353 405.786 375.514 406.457 374.691 406.9C373.88 407.337 372.892 407.655 371.887 407.655C371.604 407.655 371.137 407.662 370.646 407.58C370.092 407.488 369.603 407.307 369.108 407.059L369.032 407.021L368.959 406.978L363.313 403.657L363.304 403.651L363.295 403.646C360.643 402.055 359.292 398.595 361.108 395.567Z" fill="white" stroke="white" stroke-width="5"/>
<path d="M331.884 379.294C333.472 376.647 336.921 375.297 339.944 377.097L345.59 380.417L345.609 380.429C348.261 382.02 349.611 385.48 347.795 388.508L347.765 388.559L347.731 388.609C347.128 389.513 346.29 390.184 345.467 390.627C344.655 391.064 343.667 391.382 342.662 391.382C342.379 391.382 341.912 391.389 341.421 391.307C340.867 391.215 340.378 391.034 339.884 390.786L339.808 390.748L339.734 390.705L334.089 387.384L334.079 387.378L334.07 387.373C331.418 385.782 330.067 382.322 331.884 379.294Z" fill="white" stroke="white" stroke-width="5"/>
<path d="M402.107 479.37C403.672 479.37 405.169 479.903 406.282 481.016C407.395 482.129 407.928 483.627 407.928 485.191V491.833C407.928 493.397 407.395 494.896 406.282 496.009C405.169 497.122 403.672 497.654 402.107 497.654C400.543 497.654 399.045 497.122 397.932 496.009C396.819 494.896 396.286 493.397 396.286 491.833V485.191C396.286 483.627 396.819 482.129 397.932 481.016C399.045 479.903 400.543 479.37 402.107 479.37Z" fill="white" stroke="white" stroke-width="5"/>
<path d="M402.107 446.16C403.672 446.16 405.169 446.693 406.282 447.806C407.395 448.919 407.928 450.417 407.928 451.981V458.623C407.928 460.187 407.395 461.686 406.282 462.799C405.169 463.912 403.672 464.444 402.107 464.444C400.543 464.444 399.045 463.912 397.932 462.799C396.819 461.686 396.286 460.187 396.286 458.623V451.981C396.286 450.417 396.819 448.919 397.932 447.806C399.045 446.693 400.543 446.16 402.107 446.16Z" fill="white" stroke="white" stroke-width="5"/>
<path d="M402.107 372.766C403.672 372.766 405.169 373.299 406.282 374.412C407.395 375.525 407.928 377.023 407.928 378.588V385.229C407.928 386.794 407.395 388.292 406.282 389.405C405.169 390.518 403.672 391.05 402.107 391.051C398.574 391.051 396.286 388.105 396.286 385.229V378.588C396.286 377.023 396.819 375.525 397.932 374.412C399.045 373.299 400.543 372.766 402.107 372.766Z" fill="white" stroke="white" stroke-width="5"/>
<path d="M402.107 339.557C403.672 339.557 405.169 340.089 406.282 341.202C407.395 342.315 407.928 343.814 407.928 345.378V352.02C407.928 353.584 407.395 355.082 406.282 356.195C405.169 357.308 403.672 357.841 402.107 357.841C398.574 357.841 396.286 354.895 396.286 352.02V345.378C396.286 343.814 396.819 342.315 397.932 341.202C399.045 340.089 400.543 339.557 402.107 339.557Z" fill="white" stroke="white" stroke-width="5"/>
<path d="M455.092 448.371C456.68 445.724 460.129 444.373 463.152 446.173L468.798 449.494L468.817 449.505C471.816 451.305 472.165 454.767 471.181 457.227L471.084 457.468L470.939 457.685C470.336 458.59 469.498 459.26 468.675 459.704C467.863 460.141 466.875 460.458 465.87 460.458C465.587 460.458 465.12 460.465 464.629 460.383C464.075 460.291 463.586 460.11 463.092 459.863L463.016 459.825L462.942 459.782L457.297 456.46L457.287 456.455L457.278 456.45C454.626 454.858 453.275 451.398 455.092 448.371Z" fill="white" stroke="white" stroke-width="5"/>
<path d="M426.199 432.098C427.787 429.451 431.236 428.101 434.26 429.901L439.905 433.221L440.026 433.292L440.138 433.376C442.309 435.005 443.4 438.175 442.288 440.954L442.191 441.196L442.047 441.412C441.444 442.317 440.605 442.988 439.782 443.431C438.971 443.868 437.983 444.186 436.978 444.186C436.695 444.186 436.228 444.193 435.736 444.111C435.183 444.018 434.694 443.837 434.199 443.59L434.123 443.552L434.05 443.509L428.404 440.188L428.395 440.182L428.386 440.177C425.734 438.586 424.383 435.126 426.199 432.098Z" fill="white" stroke="white" stroke-width="5"/>
<path d="M339.996 447.211C341.422 446.231 343.124 446.204 344.47 446.589C345.89 446.994 347.271 447.94 348.127 449.367C349.943 452.395 348.593 455.855 345.941 457.446L345.932 457.451L345.922 457.457L340.276 460.778L340.203 460.821L340.127 460.859C339.632 461.106 339.143 461.287 338.59 461.38C338.098 461.462 337.632 461.455 337.349 461.455C335.05 461.455 333.328 460.254 332.279 458.681L332.246 458.632L332.216 458.581C330.399 455.553 331.75 452.093 334.402 450.502L334.411 450.496L334.421 450.49L339.996 447.211Z" fill="white" stroke="white" stroke-width="5"/>
<path d="M368.959 430.897C371.982 429.097 375.431 430.447 377.02 433.093C378.836 436.121 377.486 439.582 374.834 441.173L374.824 441.178L374.814 441.184L369.169 444.505L369.096 444.548L369.02 444.586C368.525 444.834 368.036 445.015 367.482 445.107C366.991 445.189 366.524 445.182 366.241 445.182C363.943 445.182 362.22 443.981 361.172 442.409L361.139 442.359L361.108 442.308C359.292 439.28 360.643 435.82 363.295 434.229L363.304 434.223L363.313 434.217L368.959 430.897Z" fill="white" stroke="white" stroke-width="5"/>
<mask id="path-14-outside-1_21_475" maskUnits="userSpaceOnUse" x="214.513" y="214.512" width="376" height="409" fill="black">
<rect fill="white" x="214.513" y="214.512" width="376" height="409"/>
<path d="M555.205 418.771C568.157 401.502 577.455 384.233 581.773 367.96C586.754 349.031 585.426 332.758 577.455 319.142C562.179 293.238 524.984 283.275 478.49 288.589C459.893 246.412 432.66 219.512 402.107 219.512C371.554 219.512 344.322 246.412 325.725 288.589C279.231 283.275 242.036 293.238 226.759 319.142C218.789 332.758 217.461 349.031 222.442 367.96C226.759 384.565 236.058 401.834 249.01 418.771C236.058 436.04 226.759 453.31 222.442 469.582C217.461 488.512 218.789 504.785 226.759 518.401C239.379 539.987 266.943 550.282 302.478 550.282C310.116 550.282 317.754 549.618 326.057 548.954C344.654 591.13 371.886 618.03 402.44 618.03C432.993 618.03 460.225 591.13 478.822 548.954C486.793 549.95 494.763 550.282 502.401 550.282C537.936 550.282 565.5 539.655 578.12 518.401C586.09 504.785 587.418 488.512 582.437 469.582C577.455 453.31 568.489 436.04 555.205 418.771ZM502.401 293.57C535.279 293.57 560.518 303.201 571.81 322.795C578.784 334.75 580.112 349.363 575.463 366.3C571.478 381.244 562.843 397.517 550.888 413.458C540.26 400.174 526.976 386.89 512.032 374.27C513.36 371.613 514.357 368.624 514.357 365.636C514.357 355.673 506.054 347.37 496.091 347.37C492.438 328.441 487.125 310.839 480.815 294.899C488.453 293.902 495.427 293.57 502.401 293.57ZM507.715 471.575C507.715 477.885 502.401 483.198 496.091 483.198C489.781 483.198 484.468 477.885 484.468 471.575C484.468 465.265 489.781 459.952 496.091 459.952C502.401 459.952 507.715 465.265 507.715 471.575ZM495.095 453.31C485.464 453.974 477.826 461.944 477.826 471.575C477.826 474.564 478.49 477.553 479.818 479.877C470.188 486.519 459.893 493.161 449.265 499.139C438.638 505.117 428.011 510.43 417.384 515.412C414.063 510.43 408.417 507.109 402.107 507.109C395.798 507.109 390.152 510.43 386.831 515.412C376.204 510.43 365.577 505.117 354.949 499.139C344.322 493.161 334.027 486.852 324.396 479.877C325.725 477.221 326.389 474.564 326.389 471.575C326.389 461.944 318.751 453.974 309.12 453.31C308.124 442.018 307.459 430.727 307.459 418.771C307.459 407.148 308.124 395.524 309.12 384.233C318.751 383.569 326.389 375.598 326.389 365.968C326.389 362.979 325.725 359.99 324.396 357.665C334.027 351.023 344.322 344.381 354.949 338.403C365.577 332.426 376.204 327.112 386.831 322.131C390.152 327.112 395.798 330.433 402.107 330.433C408.417 330.433 414.063 327.112 417.384 322.131C428.011 327.112 438.638 332.426 449.265 338.403C459.893 344.381 469.856 350.691 479.486 357.333C478.49 359.658 477.826 362.315 477.826 365.303C477.826 374.934 485.464 382.905 495.095 383.569C496.091 394.86 496.756 406.816 496.756 418.771C496.423 430.395 496.091 442.018 495.095 453.31ZM413.731 525.375C413.731 531.685 408.417 536.998 402.107 536.998C395.798 536.998 390.484 531.685 390.484 525.375C390.484 519.065 395.798 513.751 402.107 513.751C408.417 513.751 413.731 519.065 413.731 525.375ZM308.124 459.952C314.433 459.952 319.747 465.265 319.747 471.575C319.747 477.885 314.433 483.198 308.124 483.198C301.814 483.198 296.5 477.885 296.5 471.575C296.5 465.265 301.482 459.952 308.124 459.952ZM296.5 365.968C296.5 359.658 301.814 354.344 308.124 354.344C314.433 354.344 319.747 359.658 319.747 365.968C319.747 372.278 314.433 377.591 308.124 377.591C301.482 377.591 296.5 372.278 296.5 365.968ZM390.484 312.168C390.484 305.858 395.798 300.544 402.107 300.544C408.417 300.544 413.731 305.858 413.731 312.168C413.731 318.478 408.417 323.791 402.107 323.791C395.798 323.791 390.484 318.478 390.484 312.168ZM496.091 377.259C489.781 377.259 484.468 371.945 484.468 365.636C484.468 359.326 489.781 354.012 496.091 354.012C502.401 354.012 507.715 359.326 507.715 365.636C507.715 371.945 502.733 377.259 496.091 377.259ZM483.472 352.02C473.841 345.378 463.214 338.736 452.586 332.758C441.627 326.448 431 321.134 420.041 316.153C420.373 314.824 420.373 313.496 420.373 312.168C420.373 311.171 420.373 310.175 420.041 308.847C438.97 302.205 457.236 297.887 474.505 295.563C480.815 311.171 486.128 329.105 489.781 348.366C487.457 349.031 485.464 350.359 483.472 352.02ZM384.174 316.153C373.215 321.134 362.588 326.448 351.628 332.758C340.669 339.068 330.374 345.378 320.411 352.352C318.751 350.691 316.426 349.363 314.433 348.699C318.087 329.105 323.4 311.171 329.71 295.563C346.647 297.887 365.244 302.537 384.174 308.847C383.842 309.843 383.842 310.839 383.842 312.168C383.842 313.496 383.842 314.824 384.174 316.153ZM295.836 379.584C297.828 381.244 300.153 382.573 302.81 383.569C301.814 394.86 301.149 406.816 301.149 418.771C301.149 430.727 301.814 442.682 302.81 453.974C300.153 454.638 297.828 455.966 295.836 457.959C281.224 445.339 268.272 432.055 257.645 418.771C268.272 405.487 281.224 392.203 295.836 379.584ZM320.411 485.191C330.374 492.165 340.669 498.475 351.628 504.785C362.588 511.095 373.215 516.408 384.174 521.39C383.842 522.718 383.842 524.047 383.842 525.375C383.842 526.371 383.842 527.367 384.174 528.696C365.244 535.338 346.979 539.655 329.71 541.98C323.4 526.039 318.087 508.106 314.433 488.844C316.426 488.18 318.751 486.852 320.411 485.191ZM420.041 521.39C431 516.408 441.627 511.095 452.586 504.785C463.546 498.475 473.841 492.165 483.804 485.191C485.464 486.852 487.789 488.18 489.781 488.844C486.128 508.438 480.815 526.371 474.505 541.98C457.568 539.655 438.97 535.006 420.041 528.696C420.373 527.7 420.373 526.703 420.373 525.375C420.373 524.047 420.373 522.718 420.041 521.39ZM508.379 457.959C506.386 456.298 504.062 454.97 501.405 453.974C502.401 442.682 503.065 430.727 503.065 418.771C503.065 406.484 502.401 394.528 501.405 382.905C503.73 382.24 506.054 380.912 508.047 379.252C522.991 391.871 535.943 405.155 546.57 418.771C535.943 432.055 522.991 445.339 508.379 457.959ZM402.107 226.154C429.672 226.154 454.579 250.729 471.848 289.585C454.911 291.91 436.646 296.559 417.716 302.869C414.395 297.555 408.749 293.902 401.775 293.902C395.133 293.902 389.156 297.555 385.835 302.869C367.237 296.559 348.972 291.91 331.703 289.585C349.636 250.729 374.543 226.154 402.107 226.154ZM228.752 365.968C224.103 349.031 225.431 334.418 232.405 322.463C244.029 302.869 269.268 293.238 301.814 293.238C308.456 293.238 315.762 293.57 323.068 294.566C316.758 310.507 311.445 328.108 307.791 347.37C297.828 347.37 289.858 355.673 289.858 365.636C289.858 368.624 290.522 371.281 291.851 373.938C276.906 386.558 263.954 399.51 253.327 412.794C241.04 397.185 232.737 381.244 228.752 365.968ZM232.405 515.08C225.431 503.124 224.103 488.512 228.752 471.575C232.737 456.631 241.372 440.358 253.327 424.417C263.954 437.701 276.906 450.985 291.851 463.273C290.522 465.929 289.858 468.586 289.858 471.575C289.858 481.538 297.828 489.84 307.791 489.84C311.445 509.102 316.758 527.035 323.068 542.644C280.227 547.626 246.353 538.659 232.405 515.08ZM402.107 611.388C374.543 611.388 349.636 586.813 332.367 547.958C349.304 545.633 367.569 540.984 386.499 534.674C389.82 539.987 395.465 543.64 402.44 543.64C409.081 543.64 415.059 539.987 418.38 534.674C436.978 540.984 455.243 545.633 472.512 547.958C454.579 586.813 429.672 611.388 402.107 611.388ZM571.81 515.08C557.862 538.659 523.988 547.626 481.147 542.976C487.457 527.035 492.77 509.434 496.423 490.172C506.386 489.84 514.357 481.87 514.357 471.907C514.357 468.918 513.693 466.261 512.364 463.605C527.309 450.985 540.26 438.033 550.888 424.749C562.843 440.69 571.478 456.963 575.463 471.907C580.112 488.512 578.784 503.124 571.81 515.08Z"/>
</mask>
<path d="M555.205 418.771C568.157 401.502 577.455 384.233 581.773 367.96C586.754 349.031 585.426 332.758 577.455 319.142C562.179 293.238 524.984 283.275 478.49 288.589C459.893 246.412 432.66 219.512 402.107 219.512C371.554 219.512 344.322 246.412 325.725 288.589C279.231 283.275 242.036 293.238 226.759 319.142C218.789 332.758 217.461 349.031 222.442 367.96C226.759 384.565 236.058 401.834 249.01 418.771C236.058 436.04 226.759 453.31 222.442 469.582C217.461 488.512 218.789 504.785 226.759 518.401C239.379 539.987 266.943 550.282 302.478 550.282C310.116 550.282 317.754 549.618 326.057 548.954C344.654 591.13 371.886 618.03 402.44 618.03C432.993 618.03 460.225 591.13 478.822 548.954C486.793 549.95 494.763 550.282 502.401 550.282C537.936 550.282 565.5 539.655 578.12 518.401C586.09 504.785 587.418 488.512 582.437 469.582C577.455 453.31 568.489 436.04 555.205 418.771ZM502.401 293.57C535.279 293.57 560.518 303.201 571.81 322.795C578.784 334.75 580.112 349.363 575.463 366.3C571.478 381.244 562.843 397.517 550.888 413.458C540.26 400.174 526.976 386.89 512.032 374.27C513.36 371.613 514.357 368.624 514.357 365.636C514.357 355.673 506.054 347.37 496.091 347.37C492.438 328.441 487.125 310.839 480.815 294.899C488.453 293.902 495.427 293.57 502.401 293.57ZM507.715 471.575C507.715 477.885 502.401 483.198 496.091 483.198C489.781 483.198 484.468 477.885 484.468 471.575C484.468 465.265 489.781 459.952 496.091 459.952C502.401 459.952 507.715 465.265 507.715 471.575ZM495.095 453.31C485.464 453.974 477.826 461.944 477.826 471.575C477.826 474.564 478.49 477.553 479.818 479.877C470.188 486.519 459.893 493.161 449.265 499.139C438.638 505.117 428.011 510.43 417.384 515.412C414.063 510.43 408.417 507.109 402.107 507.109C395.798 507.109 390.152 510.43 386.831 515.412C376.204 510.43 365.577 505.117 354.949 499.139C344.322 493.161 334.027 486.852 324.396 479.877C325.725 477.221 326.389 474.564 326.389 471.575C326.389 461.944 318.751 453.974 309.12 453.31C308.124 442.018 307.459 430.727 307.459 418.771C307.459 407.148 308.124 395.524 309.12 384.233C318.751 383.569 326.389 375.598 326.389 365.968C326.389 362.979 325.725 359.99 324.396 357.665C334.027 351.023 344.322 344.381 354.949 338.403C365.577 332.426 376.204 327.112 386.831 322.131C390.152 327.112 395.798 330.433 402.107 330.433C408.417 330.433 414.063 327.112 417.384 322.131C428.011 327.112 438.638 332.426 449.265 338.403C459.893 344.381 469.856 350.691 479.486 357.333C478.49 359.658 477.826 362.315 477.826 365.303C477.826 374.934 485.464 382.905 495.095 383.569C496.091 394.86 496.756 406.816 496.756 418.771C496.423 430.395 496.091 442.018 495.095 453.31ZM413.731 525.375C413.731 531.685 408.417 536.998 402.107 536.998C395.798 536.998 390.484 531.685 390.484 525.375C390.484 519.065 395.798 513.751 402.107 513.751C408.417 513.751 413.731 519.065 413.731 525.375ZM308.124 459.952C314.433 459.952 319.747 465.265 319.747 471.575C319.747 477.885 314.433 483.198 308.124 483.198C301.814 483.198 296.5 477.885 296.5 471.575C296.5 465.265 301.482 459.952 308.124 459.952ZM296.5 365.968C296.5 359.658 301.814 354.344 308.124 354.344C314.433 354.344 319.747 359.658 319.747 365.968C319.747 372.278 314.433 377.591 308.124 377.591C301.482 377.591 296.5 372.278 296.5 365.968ZM390.484 312.168C390.484 305.858 395.798 300.544 402.107 300.544C408.417 300.544 413.731 305.858 413.731 312.168C413.731 318.478 408.417 323.791 402.107 323.791C395.798 323.791 390.484 318.478 390.484 312.168ZM496.091 377.259C489.781 377.259 484.468 371.945 484.468 365.636C484.468 359.326 489.781 354.012 496.091 354.012C502.401 354.012 507.715 359.326 507.715 365.636C507.715 371.945 502.733 377.259 496.091 377.259ZM483.472 352.02C473.841 345.378 463.214 338.736 452.586 332.758C441.627 326.448 431 321.134 420.041 316.153C420.373 314.824 420.373 313.496 420.373 312.168C420.373 311.171 420.373 310.175 420.041 308.847C438.97 302.205 457.236 297.887 474.505 295.563C480.815 311.171 486.128 329.105 489.781 348.366C487.457 349.031 485.464 350.359 483.472 352.02ZM384.174 316.153C373.215 321.134 362.588 326.448 351.628 332.758C340.669 339.068 330.374 345.378 320.411 352.352C318.751 350.691 316.426 349.363 314.433 348.699C318.087 329.105 323.4 311.171 329.71 295.563C346.647 297.887 365.244 302.537 384.174 308.847C383.842 309.843 383.842 310.839 383.842 312.168C383.842 313.496 383.842 314.824 384.174 316.153ZM295.836 379.584C297.828 381.244 300.153 382.573 302.81 383.569C301.814 394.86 301.149 406.816 301.149 418.771C301.149 430.727 301.814 442.682 302.81 453.974C300.153 454.638 297.828 455.966 295.836 457.959C281.224 445.339 268.272 432.055 257.645 418.771C268.272 405.487 281.224 392.203 295.836 379.584ZM320.411 485.191C330.374 492.165 340.669 498.475 351.628 504.785C362.588 511.095 373.215 516.408 384.174 521.39C383.842 522.718 383.842 524.047 383.842 525.375C383.842 526.371 383.842 527.367 384.174 528.696C365.244 535.338 346.979 539.655 329.71 541.98C323.4 526.039 318.087 508.106 314.433 488.844C316.426 488.18 318.751 486.852 320.411 485.191ZM420.041 521.39C431 516.408 441.627 511.095 452.586 504.785C463.546 498.475 473.841 492.165 483.804 485.191C485.464 486.852 487.789 488.18 489.781 488.844C486.128 508.438 480.815 526.371 474.505 541.98C457.568 539.655 438.97 535.006 420.041 528.696C420.373 527.7 420.373 526.703 420.373 525.375C420.373 524.047 420.373 522.718 420.041 521.39ZM508.379 457.959C506.386 456.298 504.062 454.97 501.405 453.974C502.401 442.682 503.065 430.727 503.065 418.771C503.065 406.484 502.401 394.528 501.405 382.905C503.73 382.24 506.054 380.912 508.047 379.252C522.991 391.871 535.943 405.155 546.57 418.771C535.943 432.055 522.991 445.339 508.379 457.959ZM402.107 226.154C429.672 226.154 454.579 250.729 471.848 289.585C454.911 291.91 436.646 296.559 417.716 302.869C414.395 297.555 408.749 293.902 401.775 293.902C395.133 293.902 389.156 297.555 385.835 302.869C367.237 296.559 348.972 291.91 331.703 289.585C349.636 250.729 374.543 226.154 402.107 226.154ZM228.752 365.968C224.103 349.031 225.431 334.418 232.405 322.463C244.029 302.869 269.268 293.238 301.814 293.238C308.456 293.238 315.762 293.57 323.068 294.566C316.758 310.507 311.445 328.108 307.791 347.37C297.828 347.37 289.858 355.673 289.858 365.636C289.858 368.624 290.522 371.281 291.851 373.938C276.906 386.558 263.954 399.51 253.327 412.794C241.04 397.185 232.737 381.244 228.752 365.968ZM232.405 515.08C225.431 503.124 224.103 488.512 228.752 471.575C232.737 456.631 241.372 440.358 253.327 424.417C263.954 437.701 276.906 450.985 291.851 463.273C290.522 465.929 289.858 468.586 289.858 471.575C289.858 481.538 297.828 489.84 307.791 489.84C311.445 509.102 316.758 527.035 323.068 542.644C280.227 547.626 246.353 538.659 232.405 515.08ZM402.107 611.388C374.543 611.388 349.636 586.813 332.367 547.958C349.304 545.633 367.569 540.984 386.499 534.674C389.82 539.987 395.465 543.64 402.44 543.64C409.081 543.64 415.059 539.987 418.38 534.674C436.978 540.984 455.243 545.633 472.512 547.958C454.579 586.813 429.672 611.388 402.107 611.388ZM571.81 515.08C557.862 538.659 523.988 547.626 481.147 542.976C487.457 527.035 492.77 509.434 496.423 490.172C506.386 489.84 514.357 481.87 514.357 471.907C514.357 468.918 513.693 466.261 512.364 463.605C527.309 450.985 540.26 438.033 550.888 424.749C562.843 440.69 571.478 456.963 575.463 471.907C580.112 488.512 578.784 503.124 571.81 515.08Z" fill="white"/>
<path d="M555.205 418.771C568.157 401.502 577.455 384.233 581.773 367.96C586.754 349.031 585.426 332.758 577.455 319.142C562.179 293.238 524.984 283.275 478.49 288.589C459.893 246.412 432.66 219.512 402.107 219.512C371.554 219.512 344.322 246.412 325.725 288.589C279.231 283.275 242.036 293.238 226.759 319.142C218.789 332.758 217.461 349.031 222.442 367.96C226.759 384.565 236.058 401.834 249.01 418.771C236.058 436.04 226.759 453.31 222.442 469.582C217.461 488.512 218.789 504.785 226.759 518.401C239.379 539.987 266.943 550.282 302.478 550.282C310.116 550.282 317.754 549.618 326.057 548.954C344.654 591.13 371.886 618.03 402.44 618.03C432.993 618.03 460.225 591.13 478.822 548.954C486.793 549.95 494.763 550.282 502.401 550.282C537.936 550.282 565.5 539.655 578.12 518.401C586.09 504.785 587.418 488.512 582.437 469.582C577.455 453.31 568.489 436.04 555.205 418.771ZM502.401 293.57C535.279 293.57 560.518 303.201 571.81 322.795C578.784 334.75 580.112 349.363 575.463 366.3C571.478 381.244 562.843 397.517 550.888 413.458C540.26 400.174 526.976 386.89 512.032 374.27C513.36 371.613 514.357 368.624 514.357 365.636C514.357 355.673 506.054 347.37 496.091 347.37C492.438 328.441 487.125 310.839 480.815 294.899C488.453 293.902 495.427 293.57 502.401 293.57ZM507.715 471.575C507.715 477.885 502.401 483.198 496.091 483.198C489.781 483.198 484.468 477.885 484.468 471.575C484.468 465.265 489.781 459.952 496.091 459.952C502.401 459.952 507.715 465.265 507.715 471.575ZM495.095 453.31C485.464 453.974 477.826 461.944 477.826 471.575C477.826 474.564 478.49 477.553 479.818 479.877C470.188 486.519 459.893 493.161 449.265 499.139C438.638 505.117 428.011 510.43 417.384 515.412C414.063 510.43 408.417 507.109 402.107 507.109C395.798 507.109 390.152 510.43 386.831 515.412C376.204 510.43 365.577 505.117 354.949 499.139C344.322 493.161 334.027 486.852 324.396 479.877C325.725 477.221 326.389 474.564 326.389 471.575C326.389 461.944 318.751 453.974 309.12 453.31C308.124 442.018 307.459 430.727 307.459 418.771C307.459 407.148 308.124 395.524 309.12 384.233C318.751 383.569 326.389 375.598 326.389 365.968C326.389 362.979 325.725 359.99 324.396 357.665C334.027 351.023 344.322 344.381 354.949 338.403C365.577 332.426 376.204 327.112 386.831 322.131C390.152 327.112 395.798 330.433 402.107 330.433C408.417 330.433 414.063 327.112 417.384 322.131C428.011 327.112 438.638 332.426 449.265 338.403C459.893 344.381 469.856 350.691 479.486 357.333C478.49 359.658 477.826 362.315 477.826 365.303C477.826 374.934 485.464 382.905 495.095 383.569C496.091 394.86 496.756 406.816 496.756 418.771C496.423 430.395 496.091 442.018 495.095 453.31ZM413.731 525.375C413.731 531.685 408.417 536.998 402.107 536.998C395.798 536.998 390.484 531.685 390.484 525.375C390.484 519.065 395.798 513.751 402.107 513.751C408.417 513.751 413.731 519.065 413.731 525.375ZM308.124 459.952C314.433 459.952 319.747 465.265 319.747 471.575C319.747 477.885 314.433 483.198 308.124 483.198C301.814 483.198 296.5 477.885 296.5 471.575C296.5 465.265 301.482 459.952 308.124 459.952ZM296.5 365.968C296.5 359.658 301.814 354.344 308.124 354.344C314.433 354.344 319.747 359.658 319.747 365.968C319.747 372.278 314.433 377.591 308.124 377.591C301.482 377.591 296.5 372.278 296.5 365.968ZM390.484 312.168C390.484 305.858 395.798 300.544 402.107 300.544C408.417 300.544 413.731 305.858 413.731 312.168C413.731 318.478 408.417 323.791 402.107 323.791C395.798 323.791 390.484 318.478 390.484 312.168ZM496.091 377.259C489.781 377.259 484.468 371.945 484.468 365.636C484.468 359.326 489.781 354.012 496.091 354.012C502.401 354.012 507.715 359.326 507.715 365.636C507.715 371.945 502.733 377.259 496.091 377.259ZM483.472 352.02C473.841 345.378 463.214 338.736 452.586 332.758C441.627 326.448 431 321.134 420.041 316.153C420.373 314.824 420.373 313.496 420.373 312.168C420.373 311.171 420.373 310.175 420.041 308.847C438.97 302.205 457.236 297.887 474.505 295.563C480.815 311.171 486.128 329.105 489.781 348.366C487.457 349.031 485.464 350.359 483.472 352.02ZM384.174 316.153C373.215 321.134 362.588 326.448 351.628 332.758C340.669 339.068 330.374 345.378 320.411 352.352C318.751 350.691 316.426 349.363 314.433 348.699C318.087 329.105 323.4 311.171 329.71 295.563C346.647 297.887 365.244 302.537 384.174 308.847C383.842 309.843 383.842 310.839 383.842 312.168C383.842 313.496 383.842 314.824 384.174 316.153ZM295.836 379.584C297.828 381.244 300.153 382.573 302.81 383.569C301.814 394.86 301.149 406.816 301.149 418.771C301.149 430.727 301.814 442.682 302.81 453.974C300.153 454.638 297.828 455.966 295.836 457.959C281.224 445.339 268.272 432.055 257.645 418.771C268.272 405.487 281.224 392.203 295.836 379.584ZM320.411 485.191C330.374 492.165 340.669 498.475 351.628 504.785C362.588 511.095 373.215 516.408 384.174 521.39C383.842 522.718 383.842 524.047 383.842 525.375C383.842 526.371 383.842 527.367 384.174 528.696C365.244 535.338 346.979 539.655 329.71 541.98C323.4 526.039 318.087 508.106 314.433 488.844C316.426 488.18 318.751 486.852 320.411 485.191ZM420.041 521.39C431 516.408 441.627 511.095 452.586 504.785C463.546 498.475 473.841 492.165 483.804 485.191C485.464 486.852 487.789 488.18 489.781 488.844C486.128 508.438 480.815 526.371 474.505 541.98C457.568 539.655 438.97 535.006 420.041 528.696C420.373 527.7 420.373 526.703 420.373 525.375C420.373 524.047 420.373 522.718 420.041 521.39ZM508.379 457.959C506.386 456.298 504.062 454.97 501.405 453.974C502.401 442.682 503.065 430.727 503.065 418.771C503.065 406.484 502.401 394.528 501.405 382.905C503.73 382.24 506.054 380.912 508.047 379.252C522.991 391.871 535.943 405.155 546.57 418.771C535.943 432.055 522.991 445.339 508.379 457.959ZM402.107 226.154C429.672 226.154 454.579 250.729 471.848 289.585C454.911 291.91 436.646 296.559 417.716 302.869C414.395 297.555 408.749 293.902 401.775 293.902C395.133 293.902 389.156 297.555 385.835 302.869C367.237 296.559 348.972 291.91 331.703 289.585C349.636 250.729 374.543 226.154 402.107 226.154ZM228.752 365.968C224.103 349.031 225.431 334.418 232.405 322.463C244.029 302.869 269.268 293.238 301.814 293.238C308.456 293.238 315.762 293.57 323.068 294.566C316.758 310.507 311.445 328.108 307.791 347.37C297.828 347.37 289.858 355.673 289.858 365.636C289.858 368.624 290.522 371.281 291.851 373.938C276.906 386.558 263.954 399.51 253.327 412.794C241.04 397.185 232.737 381.244 228.752 365.968ZM232.405 515.08C225.431 503.124 224.103 488.512 228.752 471.575C232.737 456.631 241.372 440.358 253.327 424.417C263.954 437.701 276.906 450.985 291.851 463.273C290.522 465.929 289.858 468.586 289.858 471.575C289.858 481.538 297.828 489.84 307.791 489.84C311.445 509.102 316.758 527.035 323.068 542.644C280.227 547.626 246.353 538.659 232.405 515.08ZM402.107 611.388C374.543 611.388 349.636 586.813 332.367 547.958C349.304 545.633 367.569 540.984 386.499 534.674C389.82 539.987 395.465 543.64 402.44 543.64C409.081 543.64 415.059 539.987 418.38 534.674C436.978 540.984 455.243 545.633 472.512 547.958C454.579 586.813 429.672 611.388 402.107 611.388ZM571.81 515.08C557.862 538.659 523.988 547.626 481.147 542.976C487.457 527.035 492.77 509.434 496.423 490.172C506.386 489.84 514.357 481.87 514.357 471.907C514.357 468.918 513.693 466.261 512.364 463.605C527.309 450.985 540.26 438.033 550.888 424.749C562.843 440.69 571.478 456.963 575.463 471.907C580.112 488.512 578.784 503.124 571.81 515.08Z" stroke="white" stroke-width="10" mask="url(#path-14-outside-1_21_475)"/>
<path d="M402.107 398.006C413.813 398.006 422.873 407.458 422.873 418.771C422.873 430.115 413.451 439.537 402.107 439.537C390.764 439.537 381.342 430.115 381.342 418.771C381.342 407.458 390.402 398.006 402.107 398.006ZM402.107 409.647C397.178 409.647 392.983 413.842 392.983 418.771C392.984 423.701 397.178 427.895 402.107 427.895C407.036 427.894 411.23 423.7 411.23 418.771C411.23 413.842 407.036 409.648 402.107 409.647Z" fill="white" stroke="white" stroke-width="5"/>
<path d="M982.821 547.747C963.986 547.747 945.15 544.215 927.1 537.152C909.049 530.481 892.96 520.671 879.618 508.899C878.049 507.329 877.656 504.975 878.441 503.013L892.175 456.316C892.96 454.747 894.137 453.57 895.707 453.57C897.277 453.177 898.846 453.57 900.024 454.747C920.821 474.367 944.366 492.025 973.796 493.595C981.644 493.987 990.277 494.38 997.733 492.025C1020.88 484.57 1011.07 461.025 993.809 453.962C987.923 451.607 979.682 448.861 969.087 445.721C953.391 441.405 940.441 436.696 930.631 431.987C920.036 427.278 911.011 419.823 903.163 410.012C895.707 399.81 891.783 386.468 891.783 370.379C891.783 355.075 895.707 341.734 903.555 330.354C911.403 318.974 922.391 309.949 936.125 304.063C949.859 298.177 965.948 295.037 983.999 295.037C1000.09 295.037 1015.78 297.392 1031.48 302.493C1046.78 307.202 1060.52 313.873 1072.68 321.721C1074.64 323.291 1075.43 325.645 1074.25 327.999L1061.3 371.949C1060.91 373.519 1059.73 374.303 1058.16 374.696C1056.99 375.088 1055.42 375.088 1054.24 374.303C1036.58 363.316 1018.92 349.974 998.125 347.227C984.391 345.265 963.593 346.05 958.885 362.531C952.998 383.721 983.999 389.215 998.125 393.531C1013.82 398.24 1026.77 402.949 1036.97 407.658C1047.57 412.759 1056.99 420.607 1064.44 430.418C1072.29 440.62 1076.21 454.354 1076.21 470.835C1076.21 486.924 1071.9 500.658 1063.66 512.43C1055.81 524.203 1044.43 532.836 1030.3 539.114C1016.18 544.608 1000.48 547.747 982.821 547.747ZM1120.56 545.393C1117.81 545.393 1115.45 543.038 1115.45 540.291V305.24C1115.45 302.493 1117.81 300.139 1120.56 300.139H1171.57C1174.32 300.139 1176.67 302.493 1176.67 305.24V540.291C1176.67 543.038 1174.32 545.393 1171.57 545.393H1120.56ZM1221.01 545.393C1218.27 545.393 1215.91 543.038 1215.91 540.291V305.24C1215.91 302.493 1218.27 300.139 1221.01 300.139H1272.02C1274.77 300.139 1277.13 302.493 1277.13 305.24V488.886H1365.42C1368.16 488.886 1370.52 491.241 1370.52 493.987V540.291C1370.52 543.038 1368.16 545.393 1365.42 545.393H1221.01ZM1461.95 545.393C1459.99 545.393 1458.03 544.215 1457.24 542.253L1378.76 306.81C1377.97 305.24 1378.37 303.67 1379.15 302.101C1380.33 300.923 1381.9 300.139 1383.47 300.139H1438.41C1440.37 300.139 1442.33 301.316 1443.11 303.67L1489.81 457.101L1536.9 303.67C1537.68 301.316 1539.65 300.139 1541.61 300.139H1594.19C1595.76 300.139 1597.33 300.923 1598.51 302.101C1599.29 303.67 1599.68 305.24 1598.9 306.81L1519.24 542.253C1518.46 544.215 1516.89 545.393 1514.53 545.393H1461.95ZM1638.53 545.393V310.341C1638.53 300.531 1640.49 298.569 1643.63 298.569H1815.51C1818.25 298.569 1820.61 300.531 1820.61 303.278V347.62C1820.61 350.367 1818.25 352.721 1815.51 352.721H1699.36V393.531H1772.74C1775.48 393.531 1777.84 395.886 1777.84 398.633V442.582C1777.84 445.329 1775.48 447.683 1772.74 447.683H1699.36V489.671H1815.12C1817.86 489.671 1820.22 492.025 1820.22 494.772V538.722C1820.22 541.469 1817.86 543.823 1815.12 543.823H1643.63C1640.49 543.823 1638.53 541.469 1638.53 545.393ZM1864.95 545.393C1861.81 545.393 1859.85 543.038 1859.85 540.291V305.24C1859.85 302.493 1861.81 300.139 1864.95 300.139H1960.7C1990.52 300.139 2014.07 307.594 2030.55 322.898C2054.88 344.873 2063.12 386.468 2051.34 417.076C2047.03 428.063 2039.57 438.266 2030.15 445.721C2024.66 450.038 2018.77 453.177 2012.89 456.316C2029.76 483 2055.27 537.152 2055.27 537.152C2055.66 537.937 2056.45 539.114 2056.45 540.291C2056.45 543.038 2054.09 545.393 2051.34 545.393H1993.27C1991.7 545.393 1989.74 544.215 1988.95 542.646L1954.81 467.696C1942.65 468.481 1933.23 468.089 1920.67 468.089V540.291C1920.67 543.038 1918.32 545.393 1915.57 545.393H1864.95ZM1920.67 413.544C1920.67 413.544 1970.12 419.038 1987.38 407.658C1994.05 403.341 1997.98 392.747 1997.98 384.898C1997.58 376.265 1993.27 367.24 1986.2 361.746C1978.75 355.468 1960.31 353.506 1950.89 353.506L1920.67 354.291V413.544ZM2219.69 545.393C2196.53 545.393 2175.34 539.899 2156.51 528.912C2137.67 517.532 2122.76 502.228 2112.17 483C2101.57 463.772 2096.08 442.19 2096.08 418.253C2096.08 395.101 2101.57 373.519 2112.56 354.291C2123.55 335.455 2138.85 320.151 2157.69 309.164C2176.91 298.177 2198.5 292.683 2221.26 292.683C2238.52 292.683 2255.4 296.607 2271.88 303.67C2288.36 311.126 2302.48 320.936 2314.26 333.493C2315.83 335.455 2315.83 338.202 2314.26 340.164L2276.98 370.772C2275.8 371.949 2274.62 372.734 2273.05 372.734C2271.48 372.734 2269.91 371.949 2269.13 370.772C2249.12 346.443 2216.94 341.341 2189.86 358.215C2166.32 372.734 2157.69 399.417 2158.86 426.101C2160.04 453.177 2179.66 476.329 2205.56 484.177C2229.1 491.241 2252.26 485.747 2269.13 467.696C2270.31 466.911 2271.48 466.127 2273.05 466.519C2274.62 466.519 2275.8 466.911 2276.59 468.089L2314.65 494.772C2316.22 496.734 2316.22 499.481 2314.65 501.443C2302.09 514.785 2287.18 525.772 2270.7 533.62C2253.83 541.469 2236.56 545.393 2219.69 545.393ZM2481.42 545.393C2457.88 545.393 2436.3 539.899 2417.46 528.912C2398.23 517.924 2382.93 502.228 2371.55 483.392C2360.56 464.165 2355.07 442.19 2355.07 418.645C2355.07 395.493 2360.56 373.911 2371.55 354.683C2382.93 335.455 2397.84 320.151 2417.07 309.164C2436.3 298.177 2457.88 292.683 2481.42 292.683C2504.57 292.683 2526.16 298.177 2545.38 309.164C2564.61 320.151 2579.92 335.455 2590.9 354.683C2602.28 373.911 2607.78 395.493 2607.78 418.645C2607.78 442.19 2602.28 463.772 2590.9 483C2579.92 502.228 2564.61 517.532 2545.38 528.912C2526.16 539.899 2504.57 545.393 2481.42 545.393ZM2482.21 488.886C2493.59 488.886 2504.18 485.747 2513.6 479.861C2523.41 473.582 2531.26 465.342 2536.75 454.354C2542.64 443.759 2545.38 431.595 2545.38 418.645C2545.38 406.088 2542.64 393.924 2536.75 383.329C2531.26 372.734 2523.41 364.493 2513.6 358.215C2504.18 352.329 2493.59 349.189 2482.21 349.189C2470.43 349.189 2459.84 352.329 2450.03 358.215C2439.83 364.493 2431.98 372.734 2426.09 383.329C2420.21 394.316 2417.46 406.088 2417.46 418.645C2417.46 431.595 2420.21 443.759 2426.09 454.354C2432.37 464.949 2440.22 473.582 2450.03 479.468C2459.84 485.747 2470.43 488.886 2482.21 488.886ZM2659.97 545.393C2656.83 545.393 2654.87 543.038 2654.87 540.291V305.24C2654.87 302.493 2656.83 300.139 2659.97 300.139H2755.71C2785.54 300.139 2809.08 307.594 2825.56 322.898C2849.89 344.873 2858.13 386.468 2846.36 417.076C2842.04 428.063 2834.59 438.266 2825.17 445.721C2819.68 450.038 2813.79 453.177 2807.9 456.316C2824.78 483 2850.28 537.152 2850.28 537.152C2850.68 537.937 2851.46 539.114 2851.46 540.291C2851.46 543.038 2849.11 545.393 2846.36 545.393H2788.28C2786.71 545.393 2784.75 544.215 2783.97 542.646L2749.83 467.696C2737.66 468.481 2728.25 468.089 2715.69 468.089V540.291C2715.69 543.038 2713.33 545.393 2710.59 545.393H2659.97ZM2715.69 413.544C2715.69 413.544 2765.13 419.038 2782.4 407.658C2789.07 403.341 2792.99 392.747 2792.99 384.898C2792.6 376.265 2788.28 367.24 2781.22 361.746C2773.76 355.468 2755.32 353.506 2745.9 353.506L2715.69 354.291V413.544ZM2891.09 545.393V310.341C2891.09 300.531 2893.06 298.569 2896.2 298.569H3068.07C3070.82 298.569 3073.17 300.531 3073.17 303.278V347.62C3073.17 350.367 3070.82 352.721 3068.07 352.721H2951.92V393.531H3025.3C3028.04 393.531 3030.4 395.886 3030.4 398.633V442.582C3030.4 445.329 3028.04 447.683 3025.3 447.683H2951.92V489.671H3067.68C3070.42 489.671 3072.78 492.025 3072.78 494.772V538.722C3072.78 541.469 3070.42 543.823 3067.68 543.823H2896.2C2893.06 543.823 2891.09 541.469 2891.09 545.393Z" fill="black"/>
</svg>
