<svg width="3147" height="835" viewBox="0 0 3147 835" fill="none" xmlns="http://www.w3.org/2000/svg">
<path d="M658.537 73.1707H146.342C105.931 73.1707 73.1709 105.93 73.1709 146.341V687.805C73.1709 728.216 105.931 760.976 146.342 760.976H658.537C698.948 760.976 731.707 728.216 731.707 687.805V146.341C731.707 105.93 698.948 73.1707 658.537 73.1707Z" fill="#6356E5"/>
<path d="M434.056 393.868C436.439 392.914 439.762 393.212 441.604 395.958L441.777 396.231L441.881 396.402L441.955 396.588C442.939 399.048 442.59 402.511 439.592 404.31L439.582 404.316L439.573 404.321L433.927 407.642L433.854 407.685L433.777 407.723C433.283 407.97 432.794 408.151 432.24 408.244C431.749 408.326 431.282 408.319 430.999 408.319C428.701 408.319 426.978 407.118 425.93 405.545L425.786 405.329L425.689 405.087C424.706 402.628 425.054 399.165 428.053 397.366L428.062 397.36L428.071 397.355L433.717 394.034L433.88 393.938L434.056 393.868Z" fill="white" stroke="white" stroke-width="5"/>
<path d="M462.948 377.263C465.331 376.31 468.655 376.607 470.496 379.353L470.67 379.626L470.773 379.797L470.848 379.984C471.831 382.444 471.483 385.906 468.484 387.706L468.475 387.711L468.466 387.716L462.819 391.038L462.746 391.081L462.67 391.119C462.175 391.366 461.686 391.547 461.133 391.639C460.641 391.721 460.174 391.714 459.892 391.714C457.593 391.714 455.871 390.513 454.822 388.941L454.679 388.724L454.582 388.483C453.598 386.023 453.947 382.56 456.945 380.761L456.954 380.755L456.964 380.75L462.609 377.429L462.772 377.333L462.948 377.263Z" fill="white" stroke="white" stroke-width="5"/>
<path d="M361.107 395.567C362.695 392.92 366.145 391.57 369.168 393.37L374.813 396.69L374.935 396.761L375.046 396.845C377.217 398.474 378.308 401.644 377.196 404.423L377.1 404.665L376.955 404.881C376.352 405.786 375.514 406.457 374.69 406.9C373.879 407.337 372.891 407.655 371.886 407.655C371.603 407.655 371.136 407.662 370.645 407.58C370.091 407.487 369.602 407.306 369.107 407.059L369.031 407.021L368.958 406.978L363.312 403.657L363.303 403.651L363.294 403.646C360.642 402.055 359.291 398.595 361.107 395.567Z" fill="white" stroke="white" stroke-width="5"/>
<path d="M331.883 379.294C333.471 376.648 336.92 375.297 339.943 377.097L345.589 380.417L345.608 380.429C348.26 382.021 349.61 385.481 347.794 388.508L347.764 388.559L347.73 388.609C347.127 389.514 346.289 390.184 345.466 390.627C344.654 391.064 343.666 391.382 342.661 391.382C342.378 391.382 341.911 391.389 341.42 391.307C340.866 391.215 340.377 391.034 339.883 390.787L339.807 390.749L339.733 390.706L334.088 387.384L334.078 387.378L334.069 387.374C331.417 385.782 330.066 382.322 331.883 379.294Z" fill="white" stroke="white" stroke-width="5"/>
<path d="M402.106 479.37C403.671 479.37 405.168 479.903 406.281 481.016C407.394 482.129 407.927 483.627 407.927 485.191V491.833C407.927 493.397 407.394 494.896 406.281 496.009C405.168 497.122 403.671 497.654 402.106 497.654C400.542 497.654 399.044 497.122 397.931 496.009C396.818 494.896 396.285 493.397 396.285 491.833V485.191C396.285 483.627 396.818 482.129 397.931 481.016C399.044 479.903 400.542 479.37 402.106 479.37Z" fill="white" stroke="white" stroke-width="5"/>
<path d="M402.106 446.16C403.671 446.16 405.168 446.693 406.281 447.806C407.394 448.919 407.927 450.417 407.927 451.981V458.623C407.927 460.187 407.394 461.686 406.281 462.799C405.168 463.912 403.671 464.444 402.106 464.444C400.542 464.444 399.044 463.912 397.931 462.799C396.818 461.686 396.285 460.187 396.285 458.623V451.981C396.285 450.417 396.818 448.919 397.931 447.806C399.044 446.693 400.542 446.16 402.106 446.16Z" fill="white" stroke="white" stroke-width="5"/>
<path d="M402.106 372.767C403.671 372.767 405.168 373.299 406.281 374.412C407.394 375.525 407.927 377.023 407.927 378.588V385.229C407.927 386.794 407.394 388.292 406.281 389.405C405.168 390.518 403.671 391.051 402.106 391.051C398.573 391.051 396.285 388.105 396.285 385.229V378.588C396.285 377.023 396.818 375.525 397.931 374.412C399.044 373.299 400.542 372.767 402.106 372.767Z" fill="white" stroke="white" stroke-width="5"/>
<path d="M402.106 339.557C403.671 339.557 405.168 340.089 406.281 341.202C407.394 342.315 407.927 343.814 407.927 345.378V352.02C407.927 353.584 407.394 355.082 406.281 356.195C405.168 357.308 403.671 357.841 402.106 357.841C398.573 357.841 396.285 354.895 396.285 352.02V345.378C396.285 343.814 396.818 342.315 397.931 341.202C399.044 340.089 400.542 339.557 402.106 339.557Z" fill="white" stroke="white" stroke-width="5"/>
<path d="M455.091 448.371C456.679 445.724 460.128 444.373 463.151 446.173L468.797 449.494L468.816 449.505C471.815 451.305 472.164 454.767 471.18 457.227L471.083 457.468L470.938 457.685C470.335 458.59 469.497 459.26 468.674 459.704C467.862 460.141 466.874 460.458 465.869 460.458C465.586 460.458 465.12 460.465 464.628 460.383C464.074 460.291 463.585 460.11 463.091 459.863L463.015 459.825L462.941 459.782L457.296 456.46L457.286 456.455L457.277 456.45C454.625 454.858 453.274 451.398 455.091 448.371Z" fill="white" stroke="white" stroke-width="5"/>
<path d="M426.198 432.098C427.786 429.451 431.235 428.1 434.259 429.9L439.904 433.221L440.025 433.292L440.137 433.376C442.308 435.004 443.399 438.174 442.287 440.954L442.19 441.195L442.046 441.412C441.443 442.317 440.604 442.987 439.781 443.431C438.97 443.868 437.982 444.186 436.977 444.186C436.694 444.186 436.227 444.192 435.735 444.11C435.182 444.018 434.693 443.837 434.198 443.59L434.122 443.552L434.049 443.509L428.403 440.188L428.394 440.182L428.385 440.177C425.733 438.585 424.382 435.125 426.198 432.098Z" fill="white" stroke="white" stroke-width="5"/>
<path d="M339.995 447.211C341.421 446.231 343.123 446.204 344.469 446.589C345.889 446.995 347.27 447.941 348.126 449.367C349.942 452.395 348.592 455.855 345.94 457.446L345.931 457.451L345.921 457.457L340.275 460.778L340.202 460.821L340.126 460.859C339.631 461.107 339.142 461.288 338.589 461.38C338.097 461.462 337.631 461.455 337.348 461.455C335.049 461.455 333.327 460.254 332.278 458.682L332.245 458.632L332.215 458.581C330.398 455.553 331.749 452.093 334.401 450.502L334.41 450.496L334.42 450.49L339.995 447.211Z" fill="white" stroke="white" stroke-width="5"/>
<path d="M368.958 430.897C371.981 429.097 375.43 430.447 377.019 433.093C378.835 436.121 377.485 439.582 374.833 441.173L374.823 441.178L374.813 441.184L369.168 444.505L369.095 444.548L369.019 444.586C368.524 444.834 368.035 445.015 367.481 445.107C366.99 445.189 366.523 445.182 366.24 445.182C363.942 445.182 362.219 443.981 361.171 442.409L361.138 442.359L361.107 442.308C359.291 439.28 360.642 435.82 363.294 434.229L363.303 434.223L363.312 434.217L368.958 430.897Z" fill="white" stroke="white" stroke-width="5"/>
<mask id="path-14-outside-1_21_497" maskUnits="userSpaceOnUse" x="214.512" y="214.512" width="376" height="409" fill="black">
<rect fill="white" x="214.512" y="214.512" width="376" height="409"/>
<path d="M555.204 418.771C568.156 401.502 577.454 384.233 581.772 367.96C586.753 349.031 585.425 332.758 577.454 319.142C562.178 293.238 524.983 283.275 478.489 288.589C459.892 246.412 432.66 219.512 402.106 219.512C371.553 219.512 344.321 246.412 325.724 288.589C279.23 283.275 242.035 293.238 226.758 319.142C218.788 332.758 217.46 349.031 222.441 367.96C226.758 384.565 236.057 401.834 249.009 418.771C236.057 436.04 226.758 453.31 222.441 469.582C217.46 488.512 218.788 504.785 226.758 518.401C239.378 539.987 266.942 550.282 302.477 550.282C310.115 550.282 317.753 549.618 326.056 548.954C344.653 591.13 371.885 618.03 402.439 618.03C432.992 618.03 460.224 591.13 478.821 548.954C486.792 549.95 494.762 550.282 502.4 550.282C537.935 550.282 565.499 539.655 578.119 518.401C586.089 504.785 587.417 488.512 582.436 469.582C577.454 453.31 568.488 436.04 555.204 418.771ZM502.4 293.57C535.278 293.57 560.517 303.201 571.809 322.795C578.783 334.75 580.111 349.363 575.462 366.3C571.477 381.244 562.842 397.517 550.887 413.458C540.259 400.174 526.975 386.89 512.031 374.27C513.359 371.613 514.356 368.624 514.356 365.636C514.356 355.673 506.053 347.37 496.09 347.37C492.437 328.441 487.124 310.839 480.814 294.899C488.452 293.902 495.426 293.57 502.4 293.57ZM507.714 471.575C507.714 477.885 502.4 483.198 496.09 483.198C489.78 483.198 484.467 477.885 484.467 471.575C484.467 465.265 489.78 459.952 496.09 459.952C502.4 459.952 507.714 465.265 507.714 471.575ZM495.094 453.31C485.463 453.974 477.825 461.944 477.825 471.575C477.825 474.564 478.489 477.553 479.818 479.877C470.187 486.519 459.892 493.161 449.264 499.139C438.637 505.117 428.01 510.43 417.383 515.412C414.062 510.43 408.416 507.109 402.106 507.109C395.797 507.109 390.151 510.43 386.83 515.412C376.203 510.43 365.576 505.117 354.948 499.139C344.321 493.161 334.026 486.852 324.395 479.877C325.724 477.221 326.388 474.564 326.388 471.575C326.388 461.944 318.75 453.974 309.119 453.31C308.123 442.018 307.458 430.727 307.458 418.771C307.458 407.148 308.123 395.524 309.119 384.233C318.75 383.569 326.388 375.598 326.388 365.968C326.388 362.979 325.724 359.99 324.395 357.665C334.026 351.023 344.321 344.381 354.948 338.403C365.576 332.426 376.203 327.112 386.83 322.131C390.151 327.112 395.797 330.433 402.106 330.433C408.416 330.433 414.062 327.112 417.383 322.131C428.01 327.112 438.637 332.426 449.264 338.403C459.892 344.381 469.855 350.691 479.485 357.333C478.489 359.658 477.825 362.315 477.825 365.303C477.825 374.934 485.463 382.905 495.094 383.569C496.09 394.86 496.755 406.816 496.755 418.771C496.422 430.395 496.09 442.018 495.094 453.31ZM413.73 525.375C413.73 531.685 408.416 536.998 402.106 536.998C395.797 536.998 390.483 531.685 390.483 525.375C390.483 519.065 395.797 513.751 402.106 513.751C408.416 513.751 413.73 519.065 413.73 525.375ZM308.123 459.952C314.432 459.952 319.746 465.265 319.746 471.575C319.746 477.885 314.432 483.198 308.123 483.198C301.813 483.198 296.499 477.885 296.499 471.575C296.499 465.265 301.481 459.952 308.123 459.952ZM296.499 365.968C296.499 359.658 301.813 354.344 308.123 354.344C314.432 354.344 319.746 359.658 319.746 365.968C319.746 372.278 314.432 377.591 308.123 377.591C301.481 377.591 296.499 372.278 296.499 365.968ZM390.483 312.168C390.483 305.858 395.797 300.544 402.106 300.544C408.416 300.544 413.73 305.858 413.73 312.168C413.73 318.478 408.416 323.791 402.106 323.791C395.797 323.791 390.483 318.478 390.483 312.168ZM496.09 377.259C489.78 377.259 484.467 371.945 484.467 365.636C484.467 359.326 489.78 354.012 496.09 354.012C502.4 354.012 507.714 359.326 507.714 365.636C507.714 371.945 502.732 377.259 496.09 377.259ZM483.471 352.02C473.84 345.378 463.213 338.736 452.585 332.758C441.626 326.448 430.999 321.134 420.04 316.153C420.372 314.824 420.372 313.496 420.372 312.168C420.372 311.171 420.372 310.175 420.04 308.847C438.969 302.205 457.235 297.887 474.504 295.563C480.814 311.171 486.127 329.105 489.78 348.366C487.456 349.031 485.463 350.359 483.471 352.02ZM384.173 316.153C373.214 321.134 362.587 326.448 351.627 332.758C340.668 339.068 330.373 345.378 320.41 352.352C318.75 350.691 316.425 349.363 314.432 348.699C318.086 329.105 323.399 311.171 329.709 295.563C346.646 297.887 365.244 302.537 384.173 308.847C383.841 309.843 383.841 310.839 383.841 312.168C383.841 313.496 383.841 314.824 384.173 316.153ZM295.835 379.584C297.828 381.244 300.152 382.573 302.809 383.569C301.813 394.86 301.149 406.816 301.149 418.771C301.149 430.727 301.813 442.682 302.809 453.974C300.152 454.638 297.828 455.966 295.835 457.959C281.223 445.339 268.271 432.055 257.644 418.771C268.271 405.487 281.223 392.203 295.835 379.584ZM320.41 485.191C330.373 492.165 340.668 498.475 351.627 504.785C362.587 511.095 373.214 516.408 384.173 521.39C383.841 522.718 383.841 524.047 383.841 525.375C383.841 526.371 383.841 527.367 384.173 528.696C365.244 535.338 346.978 539.655 329.709 541.98C323.399 526.039 318.086 508.106 314.432 488.844C316.425 488.18 318.75 486.852 320.41 485.191ZM420.04 521.39C430.999 516.408 441.626 511.095 452.585 504.785C463.545 498.475 473.84 492.165 483.803 485.191C485.463 486.852 487.788 488.18 489.78 488.844C486.127 508.438 480.814 526.371 474.504 541.98C457.567 539.655 438.969 535.006 420.04 528.696C420.372 527.7 420.372 526.703 420.372 525.375C420.372 524.047 420.372 522.718 420.04 521.39ZM508.378 457.959C506.385 456.298 504.061 454.97 501.404 453.974C502.4 442.682 503.064 430.727 503.064 418.771C503.064 406.484 502.4 394.528 501.404 382.905C503.729 382.24 506.053 380.912 508.046 379.252C522.99 391.871 535.942 405.155 546.569 418.771C535.942 432.055 522.99 445.339 508.378 457.959ZM402.106 226.154C429.671 226.154 454.578 250.729 471.847 289.585C454.91 291.91 436.645 296.559 417.715 302.869C414.394 297.555 408.748 293.902 401.774 293.902C395.132 293.902 389.155 297.555 385.834 302.869C367.236 296.559 348.971 291.91 331.702 289.585C349.635 250.729 374.542 226.154 402.106 226.154ZM228.751 365.968C224.102 349.031 225.43 334.418 232.404 322.463C244.028 302.869 269.267 293.238 301.813 293.238C308.455 293.238 315.761 293.57 323.067 294.566C316.757 310.507 311.444 328.108 307.79 347.37C297.828 347.37 289.857 355.673 289.857 365.636C289.857 368.624 290.521 371.281 291.85 373.938C276.905 386.558 263.953 399.51 253.326 412.794C241.039 397.185 232.736 381.244 228.751 365.968ZM232.404 515.08C225.43 503.124 224.102 488.512 228.751 471.575C232.736 456.631 241.371 440.358 253.326 424.417C263.953 437.701 276.905 450.985 291.85 463.273C290.521 465.929 289.857 468.586 289.857 471.575C289.857 481.538 297.828 489.84 307.79 489.84C311.444 509.102 316.757 527.035 323.067 542.644C280.226 547.626 246.352 538.659 232.404 515.08ZM402.106 611.388C374.542 611.388 349.635 586.813 332.366 547.958C349.303 545.633 367.568 540.984 386.498 534.674C389.819 539.987 395.464 543.64 402.439 543.64C409.081 543.64 415.058 539.987 418.379 534.674C436.977 540.984 455.242 545.633 472.511 547.958C454.578 586.813 429.671 611.388 402.106 611.388ZM571.809 515.08C557.861 538.659 523.987 547.626 481.146 542.976C487.456 527.035 492.769 509.434 496.422 490.172C506.385 489.84 514.356 481.87 514.356 471.907C514.356 468.918 513.692 466.261 512.363 463.605C527.308 450.985 540.259 438.033 550.887 424.749C562.842 440.69 571.477 456.963 575.462 471.907C580.111 488.512 578.783 503.124 571.809 515.08Z"/>
</mask>
<path d="M555.204 418.771C568.156 401.502 577.454 384.233 581.772 367.96C586.753 349.031 585.425 332.758 577.454 319.142C562.178 293.238 524.983 283.275 478.489 288.589C459.892 246.412 432.66 219.512 402.106 219.512C371.553 219.512 344.321 246.412 325.724 288.589C279.23 283.275 242.035 293.238 226.758 319.142C218.788 332.758 217.46 349.031 222.441 367.96C226.758 384.565 236.057 401.834 249.009 418.771C236.057 436.04 226.758 453.31 222.441 469.582C217.46 488.512 218.788 504.785 226.758 518.401C239.378 539.987 266.942 550.282 302.477 550.282C310.115 550.282 317.753 549.618 326.056 548.954C344.653 591.13 371.885 618.03 402.439 618.03C432.992 618.03 460.224 591.13 478.821 548.954C486.792 549.95 494.762 550.282 502.4 550.282C537.935 550.282 565.499 539.655 578.119 518.401C586.089 504.785 587.417 488.512 582.436 469.582C577.454 453.31 568.488 436.04 555.204 418.771ZM502.4 293.57C535.278 293.57 560.517 303.201 571.809 322.795C578.783 334.75 580.111 349.363 575.462 366.3C571.477 381.244 562.842 397.517 550.887 413.458C540.259 400.174 526.975 386.89 512.031 374.27C513.359 371.613 514.356 368.624 514.356 365.636C514.356 355.673 506.053 347.37 496.09 347.37C492.437 328.441 487.124 310.839 480.814 294.899C488.452 293.902 495.426 293.57 502.4 293.57ZM507.714 471.575C507.714 477.885 502.4 483.198 496.09 483.198C489.78 483.198 484.467 477.885 484.467 471.575C484.467 465.265 489.78 459.952 496.09 459.952C502.4 459.952 507.714 465.265 507.714 471.575ZM495.094 453.31C485.463 453.974 477.825 461.944 477.825 471.575C477.825 474.564 478.489 477.553 479.818 479.877C470.187 486.519 459.892 493.161 449.264 499.139C438.637 505.117 428.01 510.43 417.383 515.412C414.062 510.43 408.416 507.109 402.106 507.109C395.797 507.109 390.151 510.43 386.83 515.412C376.203 510.43 365.576 505.117 354.948 499.139C344.321 493.161 334.026 486.852 324.395 479.877C325.724 477.221 326.388 474.564 326.388 471.575C326.388 461.944 318.75 453.974 309.119 453.31C308.123 442.018 307.458 430.727 307.458 418.771C307.458 407.148 308.123 395.524 309.119 384.233C318.75 383.569 326.388 375.598 326.388 365.968C326.388 362.979 325.724 359.99 324.395 357.665C334.026 351.023 344.321 344.381 354.948 338.403C365.576 332.426 376.203 327.112 386.83 322.131C390.151 327.112 395.797 330.433 402.106 330.433C408.416 330.433 414.062 327.112 417.383 322.131C428.01 327.112 438.637 332.426 449.264 338.403C459.892 344.381 469.855 350.691 479.485 357.333C478.489 359.658 477.825 362.315 477.825 365.303C477.825 374.934 485.463 382.905 495.094 383.569C496.09 394.86 496.755 406.816 496.755 418.771C496.422 430.395 496.09 442.018 495.094 453.31ZM413.73 525.375C413.73 531.685 408.416 536.998 402.106 536.998C395.797 536.998 390.483 531.685 390.483 525.375C390.483 519.065 395.797 513.751 402.106 513.751C408.416 513.751 413.73 519.065 413.73 525.375ZM308.123 459.952C314.432 459.952 319.746 465.265 319.746 471.575C319.746 477.885 314.432 483.198 308.123 483.198C301.813 483.198 296.499 477.885 296.499 471.575C296.499 465.265 301.481 459.952 308.123 459.952ZM296.499 365.968C296.499 359.658 301.813 354.344 308.123 354.344C314.432 354.344 319.746 359.658 319.746 365.968C319.746 372.278 314.432 377.591 308.123 377.591C301.481 377.591 296.499 372.278 296.499 365.968ZM390.483 312.168C390.483 305.858 395.797 300.544 402.106 300.544C408.416 300.544 413.73 305.858 413.73 312.168C413.73 318.478 408.416 323.791 402.106 323.791C395.797 323.791 390.483 318.478 390.483 312.168ZM496.09 377.259C489.78 377.259 484.467 371.945 484.467 365.636C484.467 359.326 489.78 354.012 496.09 354.012C502.4 354.012 507.714 359.326 507.714 365.636C507.714 371.945 502.732 377.259 496.09 377.259ZM483.471 352.02C473.84 345.378 463.213 338.736 452.585 332.758C441.626 326.448 430.999 321.134 420.04 316.153C420.372 314.824 420.372 313.496 420.372 312.168C420.372 311.171 420.372 310.175 420.04 308.847C438.969 302.205 457.235 297.887 474.504 295.563C480.814 311.171 486.127 329.105 489.78 348.366C487.456 349.031 485.463 350.359 483.471 352.02ZM384.173 316.153C373.214 321.134 362.587 326.448 351.627 332.758C340.668 339.068 330.373 345.378 320.41 352.352C318.75 350.691 316.425 349.363 314.432 348.699C318.086 329.105 323.399 311.171 329.709 295.563C346.646 297.887 365.244 302.537 384.173 308.847C383.841 309.843 383.841 310.839 383.841 312.168C383.841 313.496 383.841 314.824 384.173 316.153ZM295.835 379.584C297.828 381.244 300.152 382.573 302.809 383.569C301.813 394.86 301.149 406.816 301.149 418.771C301.149 430.727 301.813 442.682 302.809 453.974C300.152 454.638 297.828 455.966 295.835 457.959C281.223 445.339 268.271 432.055 257.644 418.771C268.271 405.487 281.223 392.203 295.835 379.584ZM320.41 485.191C330.373 492.165 340.668 498.475 351.627 504.785C362.587 511.095 373.214 516.408 384.173 521.39C383.841 522.718 383.841 524.047 383.841 525.375C383.841 526.371 383.841 527.367 384.173 528.696C365.244 535.338 346.978 539.655 329.709 541.98C323.399 526.039 318.086 508.106 314.432 488.844C316.425 488.18 318.75 486.852 320.41 485.191ZM420.04 521.39C430.999 516.408 441.626 511.095 452.585 504.785C463.545 498.475 473.84 492.165 483.803 485.191C485.463 486.852 487.788 488.18 489.78 488.844C486.127 508.438 480.814 526.371 474.504 541.98C457.567 539.655 438.969 535.006 420.04 528.696C420.372 527.7 420.372 526.703 420.372 525.375C420.372 524.047 420.372 522.718 420.04 521.39ZM508.378 457.959C506.385 456.298 504.061 454.97 501.404 453.974C502.4 442.682 503.064 430.727 503.064 418.771C503.064 406.484 502.4 394.528 501.404 382.905C503.729 382.24 506.053 380.912 508.046 379.252C522.99 391.871 535.942 405.155 546.569 418.771C535.942 432.055 522.99 445.339 508.378 457.959ZM402.106 226.154C429.671 226.154 454.578 250.729 471.847 289.585C454.91 291.91 436.645 296.559 417.715 302.869C414.394 297.555 408.748 293.902 401.774 293.902C395.132 293.902 389.155 297.555 385.834 302.869C367.236 296.559 348.971 291.91 331.702 289.585C349.635 250.729 374.542 226.154 402.106 226.154ZM228.751 365.968C224.102 349.031 225.43 334.418 232.404 322.463C244.028 302.869 269.267 293.238 301.813 293.238C308.455 293.238 315.761 293.57 323.067 294.566C316.757 310.507 311.444 328.108 307.79 347.37C297.828 347.37 289.857 355.673 289.857 365.636C289.857 368.624 290.521 371.281 291.85 373.938C276.905 386.558 263.953 399.51 253.326 412.794C241.039 397.185 232.736 381.244 228.751 365.968ZM232.404 515.08C225.43 503.124 224.102 488.512 228.751 471.575C232.736 456.631 241.371 440.358 253.326 424.417C263.953 437.701 276.905 450.985 291.85 463.273C290.521 465.929 289.857 468.586 289.857 471.575C289.857 481.538 297.828 489.84 307.79 489.84C311.444 509.102 316.757 527.035 323.067 542.644C280.226 547.626 246.352 538.659 232.404 515.08ZM402.106 611.388C374.542 611.388 349.635 586.813 332.366 547.958C349.303 545.633 367.568 540.984 386.498 534.674C389.819 539.987 395.464 543.64 402.439 543.64C409.081 543.64 415.058 539.987 418.379 534.674C436.977 540.984 455.242 545.633 472.511 547.958C454.578 586.813 429.671 611.388 402.106 611.388ZM571.809 515.08C557.861 538.659 523.987 547.626 481.146 542.976C487.456 527.035 492.769 509.434 496.422 490.172C506.385 489.84 514.356 481.87 514.356 471.907C514.356 468.918 513.692 466.261 512.363 463.605C527.308 450.985 540.259 438.033 550.887 424.749C562.842 440.69 571.477 456.963 575.462 471.907C580.111 488.512 578.783 503.124 571.809 515.08Z" fill="white"/>
<path d="M555.204 418.771C568.156 401.502 577.454 384.233 581.772 367.96C586.753 349.031 585.425 332.758 577.454 319.142C562.178 293.238 524.983 283.275 478.489 288.589C459.892 246.412 432.66 219.512 402.106 219.512C371.553 219.512 344.321 246.412 325.724 288.589C279.23 283.275 242.035 293.238 226.758 319.142C218.788 332.758 217.46 349.031 222.441 367.96C226.758 384.565 236.057 401.834 249.009 418.771C236.057 436.04 226.758 453.31 222.441 469.582C217.46 488.512 218.788 504.785 226.758 518.401C239.378 539.987 266.942 550.282 302.477 550.282C310.115 550.282 317.753 549.618 326.056 548.954C344.653 591.13 371.885 618.03 402.439 618.03C432.992 618.03 460.224 591.13 478.821 548.954C486.792 549.95 494.762 550.282 502.4 550.282C537.935 550.282 565.499 539.655 578.119 518.401C586.089 504.785 587.417 488.512 582.436 469.582C577.454 453.31 568.488 436.04 555.204 418.771ZM502.4 293.57C535.278 293.57 560.517 303.201 571.809 322.795C578.783 334.75 580.111 349.363 575.462 366.3C571.477 381.244 562.842 397.517 550.887 413.458C540.259 400.174 526.975 386.89 512.031 374.27C513.359 371.613 514.356 368.624 514.356 365.636C514.356 355.673 506.053 347.37 496.09 347.37C492.437 328.441 487.124 310.839 480.814 294.899C488.452 293.902 495.426 293.57 502.4 293.57ZM507.714 471.575C507.714 477.885 502.4 483.198 496.09 483.198C489.78 483.198 484.467 477.885 484.467 471.575C484.467 465.265 489.78 459.952 496.09 459.952C502.4 459.952 507.714 465.265 507.714 471.575ZM495.094 453.31C485.463 453.974 477.825 461.944 477.825 471.575C477.825 474.564 478.489 477.553 479.818 479.877C470.187 486.519 459.892 493.161 449.264 499.139C438.637 505.117 428.01 510.43 417.383 515.412C414.062 510.43 408.416 507.109 402.106 507.109C395.797 507.109 390.151 510.43 386.83 515.412C376.203 510.43 365.576 505.117 354.948 499.139C344.321 493.161 334.026 486.852 324.395 479.877C325.724 477.221 326.388 474.564 326.388 471.575C326.388 461.944 318.75 453.974 309.119 453.31C308.123 442.018 307.458 430.727 307.458 418.771C307.458 407.148 308.123 395.524 309.119 384.233C318.75 383.569 326.388 375.598 326.388 365.968C326.388 362.979 325.724 359.99 324.395 357.665C334.026 351.023 344.321 344.381 354.948 338.403C365.576 332.426 376.203 327.112 386.83 322.131C390.151 327.112 395.797 330.433 402.106 330.433C408.416 330.433 414.062 327.112 417.383 322.131C428.01 327.112 438.637 332.426 449.264 338.403C459.892 344.381 469.855 350.691 479.485 357.333C478.489 359.658 477.825 362.315 477.825 365.303C477.825 374.934 485.463 382.905 495.094 383.569C496.09 394.86 496.755 406.816 496.755 418.771C496.422 430.395 496.09 442.018 495.094 453.31ZM413.73 525.375C413.73 531.685 408.416 536.998 402.106 536.998C395.797 536.998 390.483 531.685 390.483 525.375C390.483 519.065 395.797 513.751 402.106 513.751C408.416 513.751 413.73 519.065 413.73 525.375ZM308.123 459.952C314.432 459.952 319.746 465.265 319.746 471.575C319.746 477.885 314.432 483.198 308.123 483.198C301.813 483.198 296.499 477.885 296.499 471.575C296.499 465.265 301.481 459.952 308.123 459.952ZM296.499 365.968C296.499 359.658 301.813 354.344 308.123 354.344C314.432 354.344 319.746 359.658 319.746 365.968C319.746 372.278 314.432 377.591 308.123 377.591C301.481 377.591 296.499 372.278 296.499 365.968ZM390.483 312.168C390.483 305.858 395.797 300.544 402.106 300.544C408.416 300.544 413.73 305.858 413.73 312.168C413.73 318.478 408.416 323.791 402.106 323.791C395.797 323.791 390.483 318.478 390.483 312.168ZM496.09 377.259C489.78 377.259 484.467 371.945 484.467 365.636C484.467 359.326 489.78 354.012 496.09 354.012C502.4 354.012 507.714 359.326 507.714 365.636C507.714 371.945 502.732 377.259 496.09 377.259ZM483.471 352.02C473.84 345.378 463.213 338.736 452.585 332.758C441.626 326.448 430.999 321.134 420.04 316.153C420.372 314.824 420.372 313.496 420.372 312.168C420.372 311.171 420.372 310.175 420.04 308.847C438.969 302.205 457.235 297.887 474.504 295.563C480.814 311.171 486.127 329.105 489.78 348.366C487.456 349.031 485.463 350.359 483.471 352.02ZM384.173 316.153C373.214 321.134 362.587 326.448 351.627 332.758C340.668 339.068 330.373 345.378 320.41 352.352C318.75 350.691 316.425 349.363 314.432 348.699C318.086 329.105 323.399 311.171 329.709 295.563C346.646 297.887 365.244 302.537 384.173 308.847C383.841 309.843 383.841 310.839 383.841 312.168C383.841 313.496 383.841 314.824 384.173 316.153ZM295.835 379.584C297.828 381.244 300.152 382.573 302.809 383.569C301.813 394.86 301.149 406.816 301.149 418.771C301.149 430.727 301.813 442.682 302.809 453.974C300.152 454.638 297.828 455.966 295.835 457.959C281.223 445.339 268.271 432.055 257.644 418.771C268.271 405.487 281.223 392.203 295.835 379.584ZM320.41 485.191C330.373 492.165 340.668 498.475 351.627 504.785C362.587 511.095 373.214 516.408 384.173 521.39C383.841 522.718 383.841 524.047 383.841 525.375C383.841 526.371 383.841 527.367 384.173 528.696C365.244 535.338 346.978 539.655 329.709 541.98C323.399 526.039 318.086 508.106 314.432 488.844C316.425 488.18 318.75 486.852 320.41 485.191ZM420.04 521.39C430.999 516.408 441.626 511.095 452.585 504.785C463.545 498.475 473.84 492.165 483.803 485.191C485.463 486.852 487.788 488.18 489.78 488.844C486.127 508.438 480.814 526.371 474.504 541.98C457.567 539.655 438.969 535.006 420.04 528.696C420.372 527.7 420.372 526.703 420.372 525.375C420.372 524.047 420.372 522.718 420.04 521.39ZM508.378 457.959C506.385 456.298 504.061 454.97 501.404 453.974C502.4 442.682 503.064 430.727 503.064 418.771C503.064 406.484 502.4 394.528 501.404 382.905C503.729 382.24 506.053 380.912 508.046 379.252C522.99 391.871 535.942 405.155 546.569 418.771C535.942 432.055 522.99 445.339 508.378 457.959ZM402.106 226.154C429.671 226.154 454.578 250.729 471.847 289.585C454.91 291.91 436.645 296.559 417.715 302.869C414.394 297.555 408.748 293.902 401.774 293.902C395.132 293.902 389.155 297.555 385.834 302.869C367.236 296.559 348.971 291.91 331.702 289.585C349.635 250.729 374.542 226.154 402.106 226.154ZM228.751 365.968C224.102 349.031 225.43 334.418 232.404 322.463C244.028 302.869 269.267 293.238 301.813 293.238C308.455 293.238 315.761 293.57 323.067 294.566C316.757 310.507 311.444 328.108 307.79 347.37C297.828 347.37 289.857 355.673 289.857 365.636C289.857 368.624 290.521 371.281 291.85 373.938C276.905 386.558 263.953 399.51 253.326 412.794C241.039 397.185 232.736 381.244 228.751 365.968ZM232.404 515.08C225.43 503.124 224.102 488.512 228.751 471.575C232.736 456.631 241.371 440.358 253.326 424.417C263.953 437.701 276.905 450.985 291.85 463.273C290.521 465.929 289.857 468.586 289.857 471.575C289.857 481.538 297.828 489.84 307.79 489.84C311.444 509.102 316.757 527.035 323.067 542.644C280.226 547.626 246.352 538.659 232.404 515.08ZM402.106 611.388C374.542 611.388 349.635 586.813 332.366 547.958C349.303 545.633 367.568 540.984 386.498 534.674C389.819 539.987 395.464 543.64 402.439 543.64C409.081 543.64 415.058 539.987 418.379 534.674C436.977 540.984 455.242 545.633 472.511 547.958C454.578 586.813 429.671 611.388 402.106 611.388ZM571.809 515.08C557.861 538.659 523.987 547.626 481.146 542.976C487.456 527.035 492.769 509.434 496.422 490.172C506.385 489.84 514.356 481.87 514.356 471.907C514.356 468.918 513.692 466.261 512.363 463.605C527.308 450.985 540.259 438.033 550.887 424.749C562.842 440.69 571.477 456.963 575.462 471.907C580.111 488.512 578.783 503.124 571.809 515.08Z" stroke="white" stroke-width="10" mask="url(#path-14-outside-1_21_497)"/>
<path d="M402.106 398.006C413.812 398.006 422.872 407.458 422.872 418.771C422.872 430.115 413.45 439.537 402.106 439.537C390.763 439.537 381.341 430.115 381.341 418.771C381.341 407.458 390.401 398.006 402.106 398.006ZM402.106 409.647C397.177 409.647 392.982 413.842 392.982 418.771C392.983 423.701 397.177 427.895 402.106 427.895C407.035 427.894 411.229 423.7 411.229 418.771C411.229 413.842 407.036 409.648 402.106 409.647Z" fill="white" stroke="white" stroke-width="5"/>
<path d="M982.821 547.747C963.986 547.747 945.15 544.215 927.1 537.152C909.049 530.481 892.96 520.671 879.618 508.899C878.049 507.329 877.656 504.975 878.441 503.013L892.175 456.316C892.96 454.747 894.137 453.57 895.707 453.57C897.277 453.177 898.846 453.57 900.024 454.747C920.821 474.367 944.366 492.025 973.796 493.595C981.644 493.987 990.277 494.38 997.733 492.025C1020.88 484.57 1011.07 461.025 993.809 453.962C987.923 451.607 979.682 448.861 969.087 445.721C953.391 441.405 940.441 436.696 930.631 431.987C920.036 427.278 911.011 419.823 903.163 410.012C895.707 399.81 891.783 386.468 891.783 370.379C891.783 355.075 895.707 341.734 903.555 330.354C911.403 318.974 922.391 309.949 936.125 304.063C949.859 298.177 965.948 295.037 983.999 295.037C1000.09 295.037 1015.78 297.392 1031.48 302.493C1046.78 307.202 1060.52 313.873 1072.68 321.721C1074.64 323.291 1075.43 325.645 1074.25 327.999L1061.3 371.949C1060.91 373.519 1059.73 374.303 1058.16 374.696C1056.99 375.088 1055.42 375.088 1054.24 374.303C1036.58 363.316 1018.92 349.974 998.125 347.227C984.391 345.265 963.593 346.05 958.885 362.531C952.998 383.721 983.999 389.215 998.125 393.531C1013.82 398.24 1026.77 402.949 1036.97 407.658C1047.57 412.759 1056.99 420.607 1064.44 430.418C1072.29 440.62 1076.21 454.354 1076.21 470.835C1076.21 486.924 1071.9 500.658 1063.66 512.43C1055.81 524.203 1044.43 532.836 1030.3 539.114C1016.18 544.608 1000.48 547.747 982.821 547.747ZM1120.56 545.393C1117.81 545.393 1115.45 543.038 1115.45 540.291V305.24C1115.45 302.493 1117.81 300.139 1120.56 300.139H1171.57C1174.32 300.139 1176.67 302.493 1176.67 305.24V540.291C1176.67 543.038 1174.32 545.393 1171.57 545.393H1120.56ZM1221.01 545.393C1218.27 545.393 1215.91 543.038 1215.91 540.291V305.24C1215.91 302.493 1218.27 300.139 1221.01 300.139H1272.02C1274.77 300.139 1277.13 302.493 1277.13 305.24V488.886H1365.42C1368.16 488.886 1370.52 491.241 1370.52 493.987V540.291C1370.52 543.038 1368.16 545.393 1365.42 545.393H1221.01ZM1461.95 545.393C1459.99 545.393 1458.03 544.215 1457.24 542.253L1378.76 306.81C1377.97 305.24 1378.37 303.67 1379.15 302.101C1380.33 300.923 1381.9 300.139 1383.47 300.139H1438.41C1440.37 300.139 1442.33 301.316 1443.11 303.67L1489.81 457.101L1536.9 303.67C1537.68 301.316 1539.65 300.139 1541.61 300.139H1594.19C1595.76 300.139 1597.33 300.923 1598.51 302.101C1599.29 303.67 1599.68 305.24 1598.9 306.81L1519.24 542.253C1518.46 544.215 1516.89 545.393 1514.53 545.393H1461.95ZM1638.53 545.393V310.341C1638.53 300.531 1640.49 298.569 1643.63 298.569H1815.51C1818.25 298.569 1820.61 300.531 1820.61 303.278V347.62C1820.61 350.367 1818.25 352.721 1815.51 352.721H1699.36V393.531H1772.74C1775.48 393.531 1777.84 395.886 1777.84 398.633V442.582C1777.84 445.329 1775.48 447.683 1772.74 447.683H1699.36V489.671H1815.12C1817.86 489.671 1820.22 492.025 1820.22 494.772V538.722C1820.22 541.469 1817.86 543.823 1815.12 543.823H1643.63C1640.49 543.823 1638.53 541.469 1638.53 545.393ZM1864.95 545.393C1861.81 545.393 1859.85 543.038 1859.85 540.291V305.24C1859.85 302.493 1861.81 300.139 1864.95 300.139H1960.7C1990.52 300.139 2014.07 307.594 2030.55 322.898C2054.88 344.873 2063.12 386.468 2051.34 417.076C2047.03 428.063 2039.57 438.266 2030.15 445.721C2024.66 450.038 2018.77 453.177 2012.89 456.316C2029.76 483 2055.27 537.152 2055.27 537.152C2055.66 537.937 2056.45 539.114 2056.45 540.291C2056.45 543.038 2054.09 545.393 2051.34 545.393H1993.27C1991.7 545.393 1989.74 544.215 1988.95 542.646L1954.81 467.696C1942.65 468.481 1933.23 468.089 1920.67 468.089V540.291C1920.67 543.038 1918.32 545.393 1915.57 545.393H1864.95ZM1920.67 413.544C1920.67 413.544 1970.12 419.038 1987.38 407.658C1994.05 403.341 1997.98 392.747 1997.98 384.898C1997.58 376.265 1993.27 367.24 1986.2 361.746C1978.75 355.468 1960.31 353.506 1950.89 353.506L1920.67 354.291V413.544ZM2219.69 545.393C2196.53 545.393 2175.34 539.899 2156.51 528.912C2137.67 517.532 2122.76 502.228 2112.17 483C2101.57 463.772 2096.08 442.19 2096.08 418.253C2096.08 395.101 2101.57 373.519 2112.56 354.291C2123.55 335.455 2138.85 320.151 2157.69 309.164C2176.91 298.177 2198.5 292.683 2221.26 292.683C2238.52 292.683 2255.4 296.607 2271.88 303.67C2288.36 311.126 2302.48 320.936 2314.26 333.493C2315.83 335.455 2315.83 338.202 2314.26 340.164L2276.98 370.772C2275.8 371.949 2274.62 372.734 2273.05 372.734C2271.48 372.734 2269.91 371.949 2269.13 370.772C2249.12 346.443 2216.94 341.341 2189.86 358.215C2166.32 372.734 2157.69 399.417 2158.86 426.101C2160.04 453.177 2179.66 476.329 2205.56 484.177C2229.1 491.241 2252.26 485.747 2269.13 467.696C2270.31 466.911 2271.48 466.127 2273.05 466.519C2274.62 466.519 2275.8 466.911 2276.59 468.089L2314.65 494.772C2316.22 496.734 2316.22 499.481 2314.65 501.443C2302.09 514.785 2287.18 525.772 2270.7 533.62C2253.83 541.469 2236.56 545.393 2219.69 545.393ZM2481.42 545.393C2457.88 545.393 2436.3 539.899 2417.46 528.912C2398.23 517.924 2382.93 502.228 2371.55 483.392C2360.56 464.165 2355.07 442.19 2355.07 418.645C2355.07 395.493 2360.56 373.911 2371.55 354.683C2382.93 335.455 2397.84 320.151 2417.07 309.164C2436.3 298.177 2457.88 292.683 2481.42 292.683C2504.57 292.683 2526.16 298.177 2545.38 309.164C2564.61 320.151 2579.92 335.455 2590.9 354.683C2602.28 373.911 2607.78 395.493 2607.78 418.645C2607.78 442.19 2602.28 463.772 2590.9 483C2579.92 502.228 2564.61 517.532 2545.38 528.912C2526.16 539.899 2504.57 545.393 2481.42 545.393ZM2482.21 488.886C2493.59 488.886 2504.18 485.747 2513.6 479.861C2523.41 473.582 2531.26 465.342 2536.75 454.354C2542.64 443.759 2545.38 431.595 2545.38 418.645C2545.38 406.088 2542.64 393.924 2536.75 383.329C2531.26 372.734 2523.41 364.493 2513.6 358.215C2504.18 352.329 2493.59 349.189 2482.21 349.189C2470.43 349.189 2459.84 352.329 2450.03 358.215C2439.83 364.493 2431.98 372.734 2426.09 383.329C2420.21 394.316 2417.46 406.088 2417.46 418.645C2417.46 431.595 2420.21 443.759 2426.09 454.354C2432.37 464.949 2440.22 473.582 2450.03 479.468C2459.84 485.747 2470.43 488.886 2482.21 488.886ZM2659.97 545.393C2656.83 545.393 2654.87 543.038 2654.87 540.291V305.24C2654.87 302.493 2656.83 300.139 2659.97 300.139H2755.71C2785.54 300.139 2809.08 307.594 2825.56 322.898C2849.89 344.873 2858.13 386.468 2846.36 417.076C2842.04 428.063 2834.59 438.266 2825.17 445.721C2819.68 450.038 2813.79 453.177 2807.9 456.316C2824.78 483 2850.28 537.152 2850.28 537.152C2850.68 537.937 2851.46 539.114 2851.46 540.291C2851.46 543.038 2849.11 545.393 2846.36 545.393H2788.28C2786.71 545.393 2784.75 544.215 2783.97 542.646L2749.83 467.696C2737.66 468.481 2728.25 468.089 2715.69 468.089V540.291C2715.69 543.038 2713.33 545.393 2710.59 545.393H2659.97ZM2715.69 413.544C2715.69 413.544 2765.13 419.038 2782.4 407.658C2789.07 403.341 2792.99 392.747 2792.99 384.898C2792.6 376.265 2788.28 367.24 2781.22 361.746C2773.76 355.468 2755.32 353.506 2745.9 353.506L2715.69 354.291V413.544ZM2891.09 545.393V310.341C2891.09 300.531 2893.06 298.569 2896.2 298.569H3068.07C3070.82 298.569 3073.17 300.531 3073.17 303.278V347.62C3073.17 350.367 3070.82 352.721 3068.07 352.721H2951.92V393.531H3025.3C3028.04 393.531 3030.4 395.886 3030.4 398.633V442.582C3030.4 445.329 3028.04 447.683 3025.3 447.683H2951.92V489.671H3067.68C3070.42 489.671 3072.78 492.025 3072.78 494.772V538.722C3072.78 541.469 3070.42 543.823 3067.68 543.823H2896.2C2893.06 543.823 2891.09 541.469 2891.09 545.393Z" fill="#6356E5"/>
</svg>
