<svg width="1200" height="1200" viewBox="0 0 1200 1200" fill="none" xmlns="http://www.w3.org/2000/svg">
<path d="M687.272 536.479C692.571 534.359 699.441 535.276 702.944 541.113L703.047 541.285L703.122 541.472C705.241 546.771 704.324 553.641 698.487 557.144L698.477 557.149L698.468 557.154L683.167 566.154L683.094 566.198L683.018 566.236C681.956 566.767 681.04 567.09 680.061 567.253C679.144 567.406 678.251 567.399 677.4 567.399C672.83 567.399 669.404 565.062 667.22 561.786L667.076 561.57L666.979 561.328C664.859 556.029 665.776 549.159 671.614 545.656L671.624 545.65L671.632 545.645L686.933 536.645L687.096 536.549L687.272 536.479Z" fill="#6356E5" stroke="#6356E5" stroke-width="5"/>
<path d="M765.572 491.479C770.871 489.359 777.741 490.276 781.244 496.113L781.347 496.285L781.421 496.472C783.541 501.771 782.624 508.641 776.787 512.144L776.777 512.149L776.768 512.154L761.467 521.154L761.394 521.198L761.318 521.236C760.256 521.767 759.34 522.09 758.361 522.253C757.443 522.406 756.55 522.399 755.7 522.399C751.13 522.399 747.704 520.062 745.52 516.786L745.375 516.57L745.279 516.328C743.159 511.029 744.076 504.159 749.914 500.656L749.923 500.65L749.932 500.645L765.233 491.645L765.396 491.549L765.572 491.479Z" fill="#6356E5" stroke="#6356E5" stroke-width="5"/>
<path d="M491.657 539.313C494.948 533.828 501.803 531.342 507.667 534.846L507.667 534.845L522.968 543.845L523.088 543.916L523.201 544C527.643 547.332 529.869 553.909 527.622 559.528L527.525 559.771L527.38 559.986C526.209 561.743 524.519 563.123 522.773 564.063C521.039 564.997 519.058 565.6 517.201 565.6C516.35 565.6 515.457 565.606 514.54 565.453C513.56 565.29 512.645 564.968 511.583 564.437L511.506 564.398L511.433 564.354L496.132 555.354L496.124 555.35L496.114 555.344C490.622 552.049 488.136 545.181 491.657 539.313Z" fill="#6356E5" stroke="#6356E5" stroke-width="5"/>
<path d="M412.457 495.213C415.748 489.728 422.603 487.242 428.466 490.746L428.467 490.745L443.768 499.745L443.777 499.75L443.787 499.756C449.278 503.051 451.764 509.919 448.244 515.787L448.213 515.837L448.18 515.886C447.009 517.643 445.319 519.023 443.573 519.963C441.838 520.897 439.858 521.499 438 521.5C437.15 521.5 436.257 521.506 435.339 521.353C434.36 521.19 433.445 520.868 432.382 520.336L432.306 520.298L432.233 520.254L416.932 511.254L416.923 511.25L416.914 511.244C411.422 507.949 408.936 501.081 412.457 495.213Z" fill="#6356E5" stroke="#6356E5" stroke-width="5"/>
<path d="M599.1 768.5C602.368 768.5 605.286 769.6 607.393 771.707C609.5 773.814 610.6 776.732 610.6 780V798C610.6 801.268 609.5 804.186 607.393 806.293C605.286 808.4 602.368 809.5 599.1 809.5C595.832 809.5 592.914 808.4 590.807 806.293C588.7 804.186 587.6 801.268 587.6 798V780C587.6 776.732 588.7 773.814 590.807 771.707C592.914 769.6 595.832 768.5 599.1 768.5Z" fill="#6356E5" stroke="#6356E5" stroke-width="5"/>
<path d="M599.1 678.5C602.368 678.5 605.286 679.6 607.393 681.707C609.5 683.814 610.6 686.732 610.6 690V708C610.6 711.268 609.5 714.186 607.393 716.293C605.286 718.4 602.368 719.5 599.1 719.5C595.832 719.5 592.914 718.4 590.807 716.293C588.7 714.186 587.6 711.268 587.6 708V690C587.6 686.732 588.7 683.814 590.807 681.707C592.914 679.6 595.832 678.5 599.1 678.5Z" fill="#6356E5" stroke="#6356E5" stroke-width="5"/>
<path d="M599.1 479.6C602.368 479.6 605.286 480.7 607.393 482.807C609.5 484.914 610.6 487.832 610.6 491.1V509.1C610.6 512.368 609.5 515.286 607.393 517.393C605.286 519.5 602.368 520.6 599.1 520.6C592.16 520.6 587.6 514.816 587.6 509.1V491.1C587.6 487.832 588.7 484.914 590.807 482.807C592.914 480.7 595.832 479.6 599.1 479.6Z" fill="#6356E5" stroke="#6356E5" stroke-width="5"/>
<path d="M599.1 389.6C602.368 389.6 605.286 390.7 607.393 392.807C609.5 394.914 610.6 397.832 610.6 401.1V419.1C610.6 422.368 609.5 425.286 607.393 427.393C605.286 429.5 602.368 430.6 599.1 430.6C592.16 430.6 587.6 424.816 587.6 419.1V401.1C587.6 397.832 588.7 394.914 590.807 392.807C592.914 390.7 595.832 389.6 599.1 389.6Z" fill="#6356E5" stroke="#6356E5" stroke-width="5"/>
<path d="M746.356 682.414C749.648 676.928 756.503 674.443 762.366 677.946L762.367 677.945L777.668 686.945L777.677 686.951L777.687 686.957C783.524 690.459 784.441 697.329 782.321 702.628L782.225 702.871L782.08 703.086C780.909 704.843 779.219 706.223 777.473 707.164C775.738 708.097 773.757 708.7 771.9 708.7C771.05 708.7 770.157 708.706 769.239 708.553C768.26 708.39 767.345 708.068 766.282 707.537L766.206 707.499L766.133 707.455L750.832 698.455L750.823 698.45L750.813 698.444C745.322 695.149 742.836 688.281 746.356 682.414Z" fill="#6356E5" stroke="#6356E5" stroke-width="5"/>
<path d="M668.057 638.313C671.348 632.828 678.203 630.342 684.066 633.846L684.067 633.845L699.368 642.845L699.488 642.916L699.601 643C704.043 646.332 706.269 652.909 704.021 658.528L703.925 658.771L703.78 658.986C702.609 660.743 700.919 662.123 699.173 663.063C697.438 663.997 695.458 664.6 693.601 664.6C692.75 664.6 691.857 664.606 690.939 664.453C689.96 664.29 689.045 663.968 687.982 663.437L687.906 663.398L687.833 663.354L672.532 654.354L672.523 654.35L672.514 654.344C667.022 651.049 664.536 644.181 668.057 638.313Z" fill="#6356E5" stroke="#6356E5" stroke-width="5"/>
<path d="M433.04 680.699C435.613 678.85 438.888 678.686 441.725 679.496C444.635 680.328 447.436 682.267 449.144 685.113C452.664 690.981 450.178 697.848 444.687 701.144L444.677 701.149L444.668 701.154L429.367 710.154L429.294 710.198L429.218 710.236C428.155 710.767 427.24 711.09 426.261 711.253C425.343 711.406 424.45 711.399 423.6 711.399C419.03 711.399 415.604 709.062 413.42 705.786L413.387 705.737L413.356 705.687C409.836 699.819 412.322 692.951 417.813 689.656L417.823 689.65L417.832 689.645L433.04 680.699Z" fill="#6356E5" stroke="#6356E5" stroke-width="5"/>
<path d="M511.433 636.546C517.296 633.042 524.152 635.528 527.444 641.014C530.964 646.881 528.478 653.749 522.987 657.044L522.977 657.05L522.968 657.055L507.667 666.055L507.594 666.099L507.518 666.137C506.456 666.668 505.54 666.99 504.561 667.153C503.644 667.306 502.751 667.3 501.9 667.3C497.33 667.3 493.904 664.963 491.72 661.687L491.687 661.638L491.657 661.586C488.137 655.719 490.622 648.852 496.114 645.557L496.124 645.551L496.132 645.545L511.433 636.545V636.546Z" fill="#6356E5" stroke="#6356E5" stroke-width="5"/>
<mask id="path-13-outside-1_22_113" maskUnits="userSpaceOnUse" x="99.2612" y="55" width="1002" height="1090" fill="black">
<rect fill="white" x="99.2612" y="55" width="1002" height="1090"/>
<path d="M1014 600C1049.1 553.2 1074.3 506.4 1086 462.3C1099.5 411 1095.9 366.9 1074.3 330C1032.9 259.8 932.1 232.8 806.1 247.2C755.7 132.9 681.9 60 599.1 60C516.3 60 442.5 132.9 392.1 247.2C266.1 232.8 165.3 259.8 123.9 330C102.3 366.9 98.7001 411 112.2 462.3C123.9 507.3 149.1 554.1 184.2 600C149.1 646.8 123.9 693.6 112.2 737.7C98.7001 789 102.3 833.1 123.9 870C158.1 928.5 232.8 956.4 329.1 956.4C349.8 956.4 370.5 954.6 393 952.8C443.4 1067.1 517.2 1140 600 1140C682.8 1140 756.6 1067.1 807 952.8C828.6 955.5 850.2 956.4 870.9 956.4C967.2 956.4 1041.9 927.6 1076.1 870C1097.7 833.1 1101.3 789 1087.8 737.7C1074.3 693.6 1050 646.8 1014 600ZM870.9 260.7C960 260.7 1028.4 286.8 1059 339.9C1077.9 372.3 1081.5 411.9 1068.9 457.8C1058.1 498.3 1034.7 542.4 1002.3 585.6C973.5 549.6 937.5 513.6 897 479.4C900.6 472.2 903.3 464.1 903.3 456C903.3 429 880.8 406.5 853.8 406.5C843.9 355.2 829.5 307.5 812.4 264.3C833.1 261.6 852 260.7 870.9 260.7ZM885.3 743.1C885.3 760.2 870.9 774.6 853.8 774.6C836.7 774.6 822.3 760.2 822.3 743.1C822.3 726 836.7 711.6 853.8 711.6C870.9 711.6 885.3 726 885.3 743.1ZM851.1 693.6C825 695.4 804.3 717 804.3 743.1C804.3 751.2 806.1 759.3 809.7 765.6C783.6 783.6 755.7 801.6 726.9 817.8C698.1 834 669.3 848.4 640.5 861.9C631.5 848.4 616.2 839.4 599.1 839.4C582 839.4 566.7 848.4 557.7 861.9C528.9 848.4 500.1 834 471.3 817.8C442.5 801.6 414.6 784.5 388.5 765.6C392.1 758.4 393.9 751.2 393.9 743.1C393.9 717 373.2 695.4 347.1 693.6C344.4 663 342.6 632.4 342.6 600C342.6 568.5 344.4 537 347.1 506.4C373.2 504.6 393.9 483 393.9 456.9C393.9 448.8 392.1 440.7 388.5 434.4C414.6 416.4 442.5 398.4 471.3 382.2C500.1 366 528.9 351.6 557.7 338.1C566.7 351.6 582 360.6 599.1 360.6C616.2 360.6 631.5 351.6 640.5 338.1C669.3 351.6 698.1 366 726.9 382.2C755.7 398.4 782.7 415.5 808.8 433.5C806.1 439.8 804.3 447 804.3 455.1C804.3 481.2 825 502.8 851.1 504.6C853.8 535.2 855.6 567.6 855.6 600C854.7 631.5 853.8 663 851.1 693.6ZM630.6 888.9C630.6 906 616.2 920.4 599.1 920.4C582 920.4 567.6 906 567.6 888.9C567.6 871.8 582 857.4 599.1 857.4C616.2 857.4 630.6 871.8 630.6 888.9ZM344.4 711.6C361.5 711.6 375.9 726 375.9 743.1C375.9 760.2 361.5 774.6 344.4 774.6C327.3 774.6 312.9 760.2 312.9 743.1C312.9 726 326.4 711.6 344.4 711.6ZM312.9 456.9C312.9 439.8 327.3 425.4 344.4 425.4C361.5 425.4 375.9 439.8 375.9 456.9C375.9 474 361.5 488.4 344.4 488.4C326.4 488.4 312.9 474 312.9 456.9ZM567.6 311.1C567.6 294 582 279.6 599.1 279.6C616.2 279.6 630.6 294 630.6 311.1C630.6 328.2 616.2 342.6 599.1 342.6C582 342.6 567.6 328.2 567.6 311.1ZM853.8 487.5C836.7 487.5 822.3 473.1 822.3 456C822.3 438.9 836.7 424.5 853.8 424.5C870.9 424.5 885.3 438.9 885.3 456C885.3 473.1 871.8 487.5 853.8 487.5ZM819.6 419.1C793.5 401.1 764.7 383.1 735.9 366.9C706.2 349.8 677.4 335.4 647.7 321.9C648.6 318.3 648.6 314.7 648.6 311.1C648.6 308.4 648.6 305.7 647.7 302.1C699 284.1 748.5 272.4 795.3 266.1C812.4 308.4 826.8 357 836.7 409.2C830.4 411 825 414.6 819.6 419.1ZM550.5 321.9C520.8 335.4 492 349.8 462.3 366.9C432.6 384 404.7 401.1 377.7 420C373.2 415.5 366.9 411.9 361.5 410.1C371.4 357 385.8 308.4 402.9 266.1C448.8 272.4 499.2 285 550.5 302.1C549.6 304.8 549.6 307.5 549.6 311.1C549.6 314.7 549.6 318.3 550.5 321.9ZM311.1 493.8C316.5 498.3 322.8 501.9 330 504.6C327.3 535.2 325.5 567.6 325.5 600C325.5 632.4 327.3 664.8 330 695.4C322.8 697.2 316.5 700.8 311.1 706.2C271.5 672 236.4 636 207.6 600C236.4 564 271.5 528 311.1 493.8ZM377.7 780C404.7 798.9 432.6 816 462.3 833.1C492 850.2 520.8 864.6 550.5 878.1C549.6 881.7 549.6 885.3 549.6 888.9C549.6 891.6 549.6 894.3 550.5 897.9C499.2 915.9 449.7 927.6 402.9 933.9C385.8 890.7 371.4 842.1 361.5 789.9C366.9 788.1 373.2 784.5 377.7 780ZM647.7 878.1C677.4 864.6 706.2 850.2 735.9 833.1C765.6 816 793.5 798.9 820.5 780C825 784.5 831.3 788.1 836.7 789.9C826.8 843 812.4 891.6 795.3 933.9C749.4 927.6 699 915 647.7 897.9C648.6 895.2 648.6 892.5 648.6 888.9C648.6 885.3 648.6 881.7 647.7 878.1ZM887.1 706.2C881.7 701.7 875.4 698.1 868.2 695.4C870.9 664.8 872.7 632.4 872.7 600C872.7 566.7 870.9 534.3 868.2 502.8C874.5 501 880.8 497.4 886.2 492.9C926.7 527.1 961.8 563.1 990.6 600C961.8 636 926.7 672 887.1 706.2ZM599.1 78C673.8 78 741.3 144.6 788.1 249.9C742.2 256.2 692.7 268.8 641.4 285.9C632.4 271.5 617.1 261.6 598.2 261.6C580.2 261.6 564 271.5 555 285.9C504.6 268.8 455.1 256.2 408.3 249.9C456.9 144.6 524.4 78 599.1 78ZM129.3 456.9C116.7 411 120.3 371.4 139.2 339C170.7 285.9 239.1 259.8 327.3 259.8C345.3 259.8 365.1 260.7 384.9 263.4C367.8 306.6 353.4 354.3 343.5 406.5C316.5 406.5 294.9 429 294.9 456C294.9 464.1 296.7 471.3 300.3 478.5C259.8 512.7 224.7 547.8 195.9 583.8C162.6 541.5 140.1 498.3 129.3 456.9ZM139.2 861C120.3 828.6 116.7 789 129.3 743.1C140.1 702.6 163.5 658.5 195.9 615.3C224.7 651.3 259.8 687.3 300.3 720.6C296.7 727.8 294.9 735 294.9 743.1C294.9 770.1 316.5 792.6 343.5 792.6C353.4 844.8 367.8 893.4 384.9 935.7C268.8 949.2 177 924.9 139.2 861ZM599.1 1122C524.4 1122 456.9 1055.4 410.1 950.1C456 943.8 505.5 931.2 556.8 914.1C565.8 928.5 581.1 938.4 600 938.4C618 938.4 634.2 928.5 643.2 914.1C693.6 931.2 743.1 943.8 789.9 950.1C741.3 1055.4 673.8 1122 599.1 1122ZM1059 861C1021.2 924.9 929.4 949.2 813.3 936.6C830.4 893.4 844.8 845.7 854.7 793.5C881.7 792.6 903.3 771 903.3 744C903.3 735.9 901.5 728.7 897.9 721.5C938.4 687.3 973.5 652.2 1002.3 616.2C1034.7 659.4 1058.1 703.5 1068.9 744C1081.5 789 1077.9 828.6 1059 861Z"/>
</mask>
<path d="M1014 600C1049.1 553.2 1074.3 506.4 1086 462.3C1099.5 411 1095.9 366.9 1074.3 330C1032.9 259.8 932.1 232.8 806.1 247.2C755.7 132.9 681.9 60 599.1 60C516.3 60 442.5 132.9 392.1 247.2C266.1 232.8 165.3 259.8 123.9 330C102.3 366.9 98.7001 411 112.2 462.3C123.9 507.3 149.1 554.1 184.2 600C149.1 646.8 123.9 693.6 112.2 737.7C98.7001 789 102.3 833.1 123.9 870C158.1 928.5 232.8 956.4 329.1 956.4C349.8 956.4 370.5 954.6 393 952.8C443.4 1067.1 517.2 1140 600 1140C682.8 1140 756.6 1067.1 807 952.8C828.6 955.5 850.2 956.4 870.9 956.4C967.2 956.4 1041.9 927.6 1076.1 870C1097.7 833.1 1101.3 789 1087.8 737.7C1074.3 693.6 1050 646.8 1014 600ZM870.9 260.7C960 260.7 1028.4 286.8 1059 339.9C1077.9 372.3 1081.5 411.9 1068.9 457.8C1058.1 498.3 1034.7 542.4 1002.3 585.6C973.5 549.6 937.5 513.6 897 479.4C900.6 472.2 903.3 464.1 903.3 456C903.3 429 880.8 406.5 853.8 406.5C843.9 355.2 829.5 307.5 812.4 264.3C833.1 261.6 852 260.7 870.9 260.7ZM885.3 743.1C885.3 760.2 870.9 774.6 853.8 774.6C836.7 774.6 822.3 760.2 822.3 743.1C822.3 726 836.7 711.6 853.8 711.6C870.9 711.6 885.3 726 885.3 743.1ZM851.1 693.6C825 695.4 804.3 717 804.3 743.1C804.3 751.2 806.1 759.3 809.7 765.6C783.6 783.6 755.7 801.6 726.9 817.8C698.1 834 669.3 848.4 640.5 861.9C631.5 848.4 616.2 839.4 599.1 839.4C582 839.4 566.7 848.4 557.7 861.9C528.9 848.4 500.1 834 471.3 817.8C442.5 801.6 414.6 784.5 388.5 765.6C392.1 758.4 393.9 751.2 393.9 743.1C393.9 717 373.2 695.4 347.1 693.6C344.4 663 342.6 632.4 342.6 600C342.6 568.5 344.4 537 347.1 506.4C373.2 504.6 393.9 483 393.9 456.9C393.9 448.8 392.1 440.7 388.5 434.4C414.6 416.4 442.5 398.4 471.3 382.2C500.1 366 528.9 351.6 557.7 338.1C566.7 351.6 582 360.6 599.1 360.6C616.2 360.6 631.5 351.6 640.5 338.1C669.3 351.6 698.1 366 726.9 382.2C755.7 398.4 782.7 415.5 808.8 433.5C806.1 439.8 804.3 447 804.3 455.1C804.3 481.2 825 502.8 851.1 504.6C853.8 535.2 855.6 567.6 855.6 600C854.7 631.5 853.8 663 851.1 693.6ZM630.6 888.9C630.6 906 616.2 920.4 599.1 920.4C582 920.4 567.6 906 567.6 888.9C567.6 871.8 582 857.4 599.1 857.4C616.2 857.4 630.6 871.8 630.6 888.9ZM344.4 711.6C361.5 711.6 375.9 726 375.9 743.1C375.9 760.2 361.5 774.6 344.4 774.6C327.3 774.6 312.9 760.2 312.9 743.1C312.9 726 326.4 711.6 344.4 711.6ZM312.9 456.9C312.9 439.8 327.3 425.4 344.4 425.4C361.5 425.4 375.9 439.8 375.9 456.9C375.9 474 361.5 488.4 344.4 488.4C326.4 488.4 312.9 474 312.9 456.9ZM567.6 311.1C567.6 294 582 279.6 599.1 279.6C616.2 279.6 630.6 294 630.6 311.1C630.6 328.2 616.2 342.6 599.1 342.6C582 342.6 567.6 328.2 567.6 311.1ZM853.8 487.5C836.7 487.5 822.3 473.1 822.3 456C822.3 438.9 836.7 424.5 853.8 424.5C870.9 424.5 885.3 438.9 885.3 456C885.3 473.1 871.8 487.5 853.8 487.5ZM819.6 419.1C793.5 401.1 764.7 383.1 735.9 366.9C706.2 349.8 677.4 335.4 647.7 321.9C648.6 318.3 648.6 314.7 648.6 311.1C648.6 308.4 648.6 305.7 647.7 302.1C699 284.1 748.5 272.4 795.3 266.1C812.4 308.4 826.8 357 836.7 409.2C830.4 411 825 414.6 819.6 419.1ZM550.5 321.9C520.8 335.4 492 349.8 462.3 366.9C432.6 384 404.7 401.1 377.7 420C373.2 415.5 366.9 411.9 361.5 410.1C371.4 357 385.8 308.4 402.9 266.1C448.8 272.4 499.2 285 550.5 302.1C549.6 304.8 549.6 307.5 549.6 311.1C549.6 314.7 549.6 318.3 550.5 321.9ZM311.1 493.8C316.5 498.3 322.8 501.9 330 504.6C327.3 535.2 325.5 567.6 325.5 600C325.5 632.4 327.3 664.8 330 695.4C322.8 697.2 316.5 700.8 311.1 706.2C271.5 672 236.4 636 207.6 600C236.4 564 271.5 528 311.1 493.8ZM377.7 780C404.7 798.9 432.6 816 462.3 833.1C492 850.2 520.8 864.6 550.5 878.1C549.6 881.7 549.6 885.3 549.6 888.9C549.6 891.6 549.6 894.3 550.5 897.9C499.2 915.9 449.7 927.6 402.9 933.9C385.8 890.7 371.4 842.1 361.5 789.9C366.9 788.1 373.2 784.5 377.7 780ZM647.7 878.1C677.4 864.6 706.2 850.2 735.9 833.1C765.6 816 793.5 798.9 820.5 780C825 784.5 831.3 788.1 836.7 789.9C826.8 843 812.4 891.6 795.3 933.9C749.4 927.6 699 915 647.7 897.9C648.6 895.2 648.6 892.5 648.6 888.9C648.6 885.3 648.6 881.7 647.7 878.1ZM887.1 706.2C881.7 701.7 875.4 698.1 868.2 695.4C870.9 664.8 872.7 632.4 872.7 600C872.7 566.7 870.9 534.3 868.2 502.8C874.5 501 880.8 497.4 886.2 492.9C926.7 527.1 961.8 563.1 990.6 600C961.8 636 926.7 672 887.1 706.2ZM599.1 78C673.8 78 741.3 144.6 788.1 249.9C742.2 256.2 692.7 268.8 641.4 285.9C632.4 271.5 617.1 261.6 598.2 261.6C580.2 261.6 564 271.5 555 285.9C504.6 268.8 455.1 256.2 408.3 249.9C456.9 144.6 524.4 78 599.1 78ZM129.3 456.9C116.7 411 120.3 371.4 139.2 339C170.7 285.9 239.1 259.8 327.3 259.8C345.3 259.8 365.1 260.7 384.9 263.4C367.8 306.6 353.4 354.3 343.5 406.5C316.5 406.5 294.9 429 294.9 456C294.9 464.1 296.7 471.3 300.3 478.5C259.8 512.7 224.7 547.8 195.9 583.8C162.6 541.5 140.1 498.3 129.3 456.9ZM139.2 861C120.3 828.6 116.7 789 129.3 743.1C140.1 702.6 163.5 658.5 195.9 615.3C224.7 651.3 259.8 687.3 300.3 720.6C296.7 727.8 294.9 735 294.9 743.1C294.9 770.1 316.5 792.6 343.5 792.6C353.4 844.8 367.8 893.4 384.9 935.7C268.8 949.2 177 924.9 139.2 861ZM599.1 1122C524.4 1122 456.9 1055.4 410.1 950.1C456 943.8 505.5 931.2 556.8 914.1C565.8 928.5 581.1 938.4 600 938.4C618 938.4 634.2 928.5 643.2 914.1C693.6 931.2 743.1 943.8 789.9 950.1C741.3 1055.4 673.8 1122 599.1 1122ZM1059 861C1021.2 924.9 929.4 949.2 813.3 936.6C830.4 893.4 844.8 845.7 854.7 793.5C881.7 792.6 903.3 771 903.3 744C903.3 735.9 901.5 728.7 897.9 721.5C938.4 687.3 973.5 652.2 1002.3 616.2C1034.7 659.4 1058.1 703.5 1068.9 744C1081.5 789 1077.9 828.6 1059 861Z" fill="#6356E5"/>
<path d="M1014 600C1049.1 553.2 1074.3 506.4 1086 462.3C1099.5 411 1095.9 366.9 1074.3 330C1032.9 259.8 932.1 232.8 806.1 247.2C755.7 132.9 681.9 60 599.1 60C516.3 60 442.5 132.9 392.1 247.2C266.1 232.8 165.3 259.8 123.9 330C102.3 366.9 98.7001 411 112.2 462.3C123.9 507.3 149.1 554.1 184.2 600C149.1 646.8 123.9 693.6 112.2 737.7C98.7001 789 102.3 833.1 123.9 870C158.1 928.5 232.8 956.4 329.1 956.4C349.8 956.4 370.5 954.6 393 952.8C443.4 1067.1 517.2 1140 600 1140C682.8 1140 756.6 1067.1 807 952.8C828.6 955.5 850.2 956.4 870.9 956.4C967.2 956.4 1041.9 927.6 1076.1 870C1097.7 833.1 1101.3 789 1087.8 737.7C1074.3 693.6 1050 646.8 1014 600ZM870.9 260.7C960 260.7 1028.4 286.8 1059 339.9C1077.9 372.3 1081.5 411.9 1068.9 457.8C1058.1 498.3 1034.7 542.4 1002.3 585.6C973.5 549.6 937.5 513.6 897 479.4C900.6 472.2 903.3 464.1 903.3 456C903.3 429 880.8 406.5 853.8 406.5C843.9 355.2 829.5 307.5 812.4 264.3C833.1 261.6 852 260.7 870.9 260.7ZM885.3 743.1C885.3 760.2 870.9 774.6 853.8 774.6C836.7 774.6 822.3 760.2 822.3 743.1C822.3 726 836.7 711.6 853.8 711.6C870.9 711.6 885.3 726 885.3 743.1ZM851.1 693.6C825 695.4 804.3 717 804.3 743.1C804.3 751.2 806.1 759.3 809.7 765.6C783.6 783.6 755.7 801.6 726.9 817.8C698.1 834 669.3 848.4 640.5 861.9C631.5 848.4 616.2 839.4 599.1 839.4C582 839.4 566.7 848.4 557.7 861.9C528.9 848.4 500.1 834 471.3 817.8C442.5 801.6 414.6 784.5 388.5 765.6C392.1 758.4 393.9 751.2 393.9 743.1C393.9 717 373.2 695.4 347.1 693.6C344.4 663 342.6 632.4 342.6 600C342.6 568.5 344.4 537 347.1 506.4C373.2 504.6 393.9 483 393.9 456.9C393.9 448.8 392.1 440.7 388.5 434.4C414.6 416.4 442.5 398.4 471.3 382.2C500.1 366 528.9 351.6 557.7 338.1C566.7 351.6 582 360.6 599.1 360.6C616.2 360.6 631.5 351.6 640.5 338.1C669.3 351.6 698.1 366 726.9 382.2C755.7 398.4 782.7 415.5 808.8 433.5C806.1 439.8 804.3 447 804.3 455.1C804.3 481.2 825 502.8 851.1 504.6C853.8 535.2 855.6 567.6 855.6 600C854.7 631.5 853.8 663 851.1 693.6ZM630.6 888.9C630.6 906 616.2 920.4 599.1 920.4C582 920.4 567.6 906 567.6 888.9C567.6 871.8 582 857.4 599.1 857.4C616.2 857.4 630.6 871.8 630.6 888.9ZM344.4 711.6C361.5 711.6 375.9 726 375.9 743.1C375.9 760.2 361.5 774.6 344.4 774.6C327.3 774.6 312.9 760.2 312.9 743.1C312.9 726 326.4 711.6 344.4 711.6ZM312.9 456.9C312.9 439.8 327.3 425.4 344.4 425.4C361.5 425.4 375.9 439.8 375.9 456.9C375.9 474 361.5 488.4 344.4 488.4C326.4 488.4 312.9 474 312.9 456.9ZM567.6 311.1C567.6 294 582 279.6 599.1 279.6C616.2 279.6 630.6 294 630.6 311.1C630.6 328.2 616.2 342.6 599.1 342.6C582 342.6 567.6 328.2 567.6 311.1ZM853.8 487.5C836.7 487.5 822.3 473.1 822.3 456C822.3 438.9 836.7 424.5 853.8 424.5C870.9 424.5 885.3 438.9 885.3 456C885.3 473.1 871.8 487.5 853.8 487.5ZM819.6 419.1C793.5 401.1 764.7 383.1 735.9 366.9C706.2 349.8 677.4 335.4 647.7 321.9C648.6 318.3 648.6 314.7 648.6 311.1C648.6 308.4 648.6 305.7 647.7 302.1C699 284.1 748.5 272.4 795.3 266.1C812.4 308.4 826.8 357 836.7 409.2C830.4 411 825 414.6 819.6 419.1ZM550.5 321.9C520.8 335.4 492 349.8 462.3 366.9C432.6 384 404.7 401.1 377.7 420C373.2 415.5 366.9 411.9 361.5 410.1C371.4 357 385.8 308.4 402.9 266.1C448.8 272.4 499.2 285 550.5 302.1C549.6 304.8 549.6 307.5 549.6 311.1C549.6 314.7 549.6 318.3 550.5 321.9ZM311.1 493.8C316.5 498.3 322.8 501.9 330 504.6C327.3 535.2 325.5 567.6 325.5 600C325.5 632.4 327.3 664.8 330 695.4C322.8 697.2 316.5 700.8 311.1 706.2C271.5 672 236.4 636 207.6 600C236.4 564 271.5 528 311.1 493.8ZM377.7 780C404.7 798.9 432.6 816 462.3 833.1C492 850.2 520.8 864.6 550.5 878.1C549.6 881.7 549.6 885.3 549.6 888.9C549.6 891.6 549.6 894.3 550.5 897.9C499.2 915.9 449.7 927.6 402.9 933.9C385.8 890.7 371.4 842.1 361.5 789.9C366.9 788.1 373.2 784.5 377.7 780ZM647.7 878.1C677.4 864.6 706.2 850.2 735.9 833.1C765.6 816 793.5 798.9 820.5 780C825 784.5 831.3 788.1 836.7 789.9C826.8 843 812.4 891.6 795.3 933.9C749.4 927.6 699 915 647.7 897.9C648.6 895.2 648.6 892.5 648.6 888.9C648.6 885.3 648.6 881.7 647.7 878.1ZM887.1 706.2C881.7 701.7 875.4 698.1 868.2 695.4C870.9 664.8 872.7 632.4 872.7 600C872.7 566.7 870.9 534.3 868.2 502.8C874.5 501 880.8 497.4 886.2 492.9C926.7 527.1 961.8 563.1 990.6 600C961.8 636 926.7 672 887.1 706.2ZM599.1 78C673.8 78 741.3 144.6 788.1 249.9C742.2 256.2 692.7 268.8 641.4 285.9C632.4 271.5 617.1 261.6 598.2 261.6C580.2 261.6 564 271.5 555 285.9C504.6 268.8 455.1 256.2 408.3 249.9C456.9 144.6 524.4 78 599.1 78ZM129.3 456.9C116.7 411 120.3 371.4 139.2 339C170.7 285.9 239.1 259.8 327.3 259.8C345.3 259.8 365.1 260.7 384.9 263.4C367.8 306.6 353.4 354.3 343.5 406.5C316.5 406.5 294.9 429 294.9 456C294.9 464.1 296.7 471.3 300.3 478.5C259.8 512.7 224.7 547.8 195.9 583.8C162.6 541.5 140.1 498.3 129.3 456.9ZM139.2 861C120.3 828.6 116.7 789 129.3 743.1C140.1 702.6 163.5 658.5 195.9 615.3C224.7 651.3 259.8 687.3 300.3 720.6C296.7 727.8 294.9 735 294.9 743.1C294.9 770.1 316.5 792.6 343.5 792.6C353.4 844.8 367.8 893.4 384.9 935.7C268.8 949.2 177 924.9 139.2 861ZM599.1 1122C524.4 1122 456.9 1055.4 410.1 950.1C456 943.8 505.5 931.2 556.8 914.1C565.8 928.5 581.1 938.4 600 938.4C618 938.4 634.2 928.5 643.2 914.1C693.6 931.2 743.1 943.8 789.9 950.1C741.3 1055.4 673.8 1122 599.1 1122ZM1059 861C1021.2 924.9 929.4 949.2 813.3 936.6C830.4 893.4 844.8 845.7 854.7 793.5C881.7 792.6 903.3 771 903.3 744C903.3 735.9 901.5 728.7 897.9 721.5C938.4 687.3 973.5 652.2 1002.3 616.2C1034.7 659.4 1058.1 703.5 1068.9 744C1081.5 789 1077.9 828.6 1059 861Z" stroke="#6356E5" stroke-width="10" mask="url(#path-13-outside-1_22_113)"/>
<path d="M599.1 548C628.41 548 651.1 571.649 651.1 600C651.1 628.381 627.481 652 599.1 652C570.719 652 547.1 628.381 547.1 600C547.1 571.649 569.79 548 599.1 548ZM599.1 571C583.381 571 570.1 584.281 570.1 600C570.1 615.719 583.381 629 599.1 629C614.819 629 628.1 615.719 628.1 600C628.1 584.281 614.819 571 599.1 571Z" fill="#6356E5" stroke="#6356E5" stroke-width="5"/>
</svg>
