<svg width="3000" height="688" viewBox="0 0 3000 688" fill="none" xmlns="http://www.w3.org/2000/svg">
<path d="M585.366 0H73.1707C32.7597 0 0 32.7597 0 73.1707V614.634C0 655.045 32.7597 687.805 73.1707 687.805H585.366C625.777 687.805 658.537 655.045 658.537 614.634V73.1707C658.537 32.7597 625.777 0 585.366 0Z" fill="white"/>
<path d="M360.886 320.697C363.269 319.744 366.593 320.041 368.434 322.787L368.607 323.06L368.711 323.231L368.785 323.417C369.769 325.877 369.42 329.34 366.422 331.139L366.412 331.145L366.403 331.15L360.757 334.471L360.684 334.514L360.607 334.552C360.113 334.8 359.624 334.98 359.07 335.073C358.579 335.155 358.112 335.148 357.829 335.148C355.531 335.148 353.808 333.947 352.76 332.375L352.616 332.158L352.52 331.917C351.536 329.457 351.884 325.994 354.883 324.195L354.892 324.189L354.901 324.184L360.547 320.863L360.71 320.767L360.886 320.697Z" fill="black" stroke="black" stroke-width="5"/>
<path d="M389.778 304.092C392.161 303.139 395.485 303.436 397.326 306.182L397.5 306.456L397.604 306.626L397.678 306.813C398.662 309.273 398.313 312.736 395.314 314.535L395.305 314.541L395.296 314.545L389.649 317.867L389.576 317.91L389.5 317.948C389.005 318.195 388.516 318.376 387.963 318.468C387.471 318.55 387.005 318.543 386.722 318.543C384.424 318.543 382.701 317.343 381.652 315.77L381.509 315.553L381.412 315.312C380.428 312.852 380.777 309.389 383.775 307.59L383.784 307.584L383.794 307.58L389.439 304.258L389.603 304.163L389.778 304.092Z" fill="black" stroke="black" stroke-width="5"/>
<path d="M287.938 322.396C289.526 319.749 292.975 318.399 295.998 320.199L301.644 323.519L301.765 323.59L301.876 323.674C304.047 325.303 305.138 328.473 304.026 331.252L303.93 331.494L303.785 331.71C303.182 332.615 302.344 333.286 301.521 333.729C300.709 334.166 299.721 334.484 298.716 334.484C298.433 334.484 297.966 334.491 297.475 334.409C296.921 334.316 296.432 334.135 295.938 333.888L295.861 333.85L295.788 333.807L290.143 330.486L290.133 330.48L290.124 330.475C287.472 328.884 286.121 325.424 287.938 322.396Z" fill="black" stroke="black" stroke-width="5"/>
<path d="M258.713 306.124C260.301 303.477 263.75 302.126 266.773 303.926L272.419 307.247L272.438 307.258C275.09 308.85 276.441 312.31 274.624 315.337L274.594 315.388L274.561 315.438C273.957 316.343 273.119 317.013 272.296 317.457C271.484 317.894 270.497 318.211 269.491 318.211C269.208 318.211 268.742 318.218 268.25 318.136C267.696 318.044 267.207 317.863 266.713 317.616L266.637 317.578L266.563 317.535L260.918 314.213L260.908 314.208L260.899 314.203C258.247 312.611 256.897 309.151 258.713 306.124Z" fill="black" stroke="black" stroke-width="5"/>
<path d="M328.937 406.199C330.501 406.199 331.998 406.732 333.111 407.845C334.224 408.958 334.757 410.456 334.757 412.021V418.662C334.757 420.227 334.224 421.725 333.111 422.838C331.998 423.951 330.501 424.483 328.937 424.483C327.372 424.483 325.874 423.951 324.761 422.838C323.648 421.725 323.115 420.227 323.115 418.662V412.021C323.115 410.456 323.648 408.958 324.761 407.845C325.874 406.732 327.372 406.199 328.937 406.199Z" fill="black" stroke="black" stroke-width="5"/>
<path d="M328.937 372.989C330.501 372.989 331.998 373.522 333.111 374.635C334.224 375.748 334.757 377.246 334.757 378.811V385.452C334.757 387.017 334.224 388.515 333.111 389.628C331.998 390.741 330.501 391.273 328.937 391.273C327.372 391.273 325.874 390.741 324.761 389.628C323.648 388.515 323.115 387.017 323.115 385.452V378.811C323.115 377.246 323.648 375.748 324.761 374.635C325.874 373.522 327.372 372.989 328.937 372.989Z" fill="black" stroke="black" stroke-width="5"/>
<path d="M328.937 299.596C330.501 299.596 331.998 300.128 333.111 301.241C334.224 302.354 334.757 303.853 334.757 305.417V312.059C334.757 313.623 334.224 315.121 333.111 316.234C331.998 317.347 330.501 317.88 328.937 317.88C325.404 317.88 323.115 314.935 323.115 312.059V305.417C323.115 303.853 323.648 302.354 324.761 301.241C325.874 300.128 327.372 299.596 328.937 299.596Z" fill="black" stroke="black" stroke-width="5"/>
<path d="M328.937 266.386C330.501 266.386 331.998 266.918 333.111 268.031C334.224 269.144 334.757 270.643 334.757 272.207V278.849C334.757 280.413 334.224 281.911 333.111 283.024C331.998 284.137 330.501 284.67 328.937 284.67C325.404 284.67 323.115 281.725 323.115 278.849V272.207C323.115 270.643 323.648 269.144 324.761 268.031C325.874 266.918 327.372 266.386 328.937 266.386Z" fill="black" stroke="black" stroke-width="5"/>
<path d="M381.921 375.2C383.509 372.553 386.958 371.203 389.981 373.002L395.627 376.323L395.646 376.334C398.645 378.134 398.994 381.596 398.01 384.056L397.913 384.297L397.769 384.514C397.165 385.419 396.327 386.089 395.504 386.533C394.692 386.97 393.705 387.288 392.699 387.288C392.416 387.288 391.95 387.294 391.458 387.212C390.904 387.12 390.415 386.939 389.921 386.692L389.845 386.654L389.771 386.611L384.126 383.29L384.116 383.284L384.107 383.279C381.455 381.688 380.105 378.228 381.921 375.2Z" fill="black" stroke="black" stroke-width="5"/>
<path d="M353.028 358.927C354.616 356.28 358.065 354.93 361.089 356.729L366.734 360.05L366.855 360.121L366.967 360.205C369.138 361.834 370.229 365.004 369.117 367.783L369.021 368.024L368.876 368.241C368.273 369.146 367.434 369.817 366.611 370.26C365.8 370.697 364.812 371.015 363.807 371.015C363.524 371.015 363.057 371.021 362.565 370.939C362.012 370.847 361.523 370.666 361.028 370.419L360.952 370.381L360.879 370.338L355.233 367.017L355.224 367.011L355.215 367.006C352.563 365.415 351.212 361.955 353.028 358.927Z" fill="black" stroke="black" stroke-width="5"/>
<path d="M266.825 374.04C268.251 373.06 269.953 373.033 271.299 373.418C272.719 373.824 274.1 374.77 274.956 376.196C276.772 379.224 275.423 382.684 272.771 384.275L272.761 384.28L272.751 384.286L267.105 387.607L267.032 387.65L266.956 387.688C266.461 387.936 265.973 388.117 265.419 388.209C264.927 388.291 264.461 388.284 264.178 388.284C261.88 388.284 260.157 387.083 259.108 385.511L259.075 385.461L259.045 385.41C257.228 382.382 258.579 378.922 261.231 377.331L261.24 377.325L261.25 377.319L266.825 374.04Z" fill="black" stroke="black" stroke-width="5"/>
<path d="M295.788 357.726C298.811 355.926 302.26 357.276 303.849 359.922C305.665 362.95 304.315 366.411 301.663 368.002L301.653 368.007L301.644 368.013L295.998 371.334L295.925 371.377L295.849 371.416C295.354 371.663 294.865 371.844 294.312 371.936C293.82 372.018 293.353 372.011 293.07 372.011C290.772 372.011 289.049 370.81 288.001 369.238L287.968 369.188L287.938 369.137C286.121 366.109 287.472 362.649 290.124 361.058L290.133 361.052L290.143 361.046L295.788 357.726Z" fill="black" stroke="black" stroke-width="5"/>
<mask id="path-14-outside-1_22_92" maskUnits="userSpaceOnUse" x="141.342" y="141.341" width="376" height="409" fill="black">
<rect fill="white" x="141.342" y="141.341" width="376" height="409"/>
<path d="M482.034 345.6C494.986 328.331 504.285 311.062 508.602 294.789C513.583 275.86 512.255 259.587 504.285 245.971C489.008 220.067 451.813 210.104 405.319 215.418C386.722 173.241 359.49 146.341 328.937 146.341C298.383 146.341 271.151 173.241 252.554 215.418C206.06 210.104 168.865 220.067 153.589 245.971C145.618 259.587 144.29 275.86 149.271 294.789C153.589 311.394 162.887 328.663 175.839 345.6C162.887 362.87 153.589 380.139 149.271 396.411C144.29 415.341 145.618 431.614 153.589 445.23C166.208 466.816 193.772 477.111 229.307 477.111C236.945 477.111 244.584 476.447 252.886 475.783C271.483 517.96 298.716 544.859 329.269 544.859C359.822 544.859 387.054 517.96 405.651 475.783C413.622 476.779 421.592 477.111 429.23 477.111C464.765 477.111 492.329 466.484 504.949 445.23C512.919 431.614 514.248 415.341 509.266 396.411C504.285 380.139 495.318 362.87 482.034 345.6ZM429.23 220.399C462.108 220.399 487.348 230.03 498.639 249.624C505.613 261.579 506.941 276.192 502.292 293.129C498.307 308.073 489.672 324.346 477.717 340.287C467.09 327.003 453.806 313.719 438.861 301.099C440.19 298.442 441.186 295.454 441.186 292.465C441.186 282.502 432.883 274.199 422.92 274.199C419.267 255.27 413.954 237.668 407.644 221.728C415.282 220.731 422.256 220.399 429.23 220.399ZM434.544 398.404C434.544 404.714 429.23 410.027 422.92 410.027C416.611 410.027 411.297 404.714 411.297 398.404C411.297 392.094 416.611 386.781 422.92 386.781C429.23 386.781 434.544 392.094 434.544 398.404ZM421.924 380.139C412.293 380.803 404.655 388.773 404.655 398.404C404.655 401.393 405.319 404.382 406.648 406.707C397.017 413.348 386.722 419.99 376.095 425.968C365.467 431.946 354.84 437.26 344.213 442.241C340.892 437.26 335.246 433.939 328.937 433.939C322.627 433.939 316.981 437.26 313.66 442.241C303.033 437.26 292.406 431.946 281.779 425.968C271.151 419.99 260.856 413.681 251.225 406.707C252.554 404.05 253.218 401.393 253.218 398.404C253.218 388.773 245.58 380.803 235.949 380.139C234.953 368.847 234.288 357.556 234.288 345.6C234.288 333.977 234.953 322.354 235.949 311.062C245.58 310.398 253.218 302.428 253.218 292.797C253.218 289.808 252.554 286.819 251.225 284.494C260.856 277.852 271.151 271.21 281.779 265.233C292.406 259.255 303.033 253.941 313.66 248.96C316.981 253.941 322.627 257.262 328.937 257.262C335.246 257.262 340.892 253.941 344.213 248.96C354.84 253.941 365.467 259.255 376.095 265.233C386.722 271.21 396.685 277.52 406.315 284.162C405.319 286.487 404.655 289.144 404.655 292.133C404.655 301.763 412.293 309.734 421.924 310.398C422.92 321.689 423.585 333.645 423.585 345.6C423.253 357.224 422.92 368.847 421.924 380.139ZM340.56 452.204C340.56 458.514 335.246 463.827 328.937 463.827C322.627 463.827 317.313 458.514 317.313 452.204C317.313 445.894 322.627 440.581 328.937 440.581C335.246 440.581 340.56 445.894 340.56 452.204ZM234.953 386.781C241.263 386.781 246.576 392.094 246.576 398.404C246.576 404.714 241.263 410.027 234.953 410.027C228.643 410.027 223.329 404.714 223.329 398.404C223.329 392.094 228.311 386.781 234.953 386.781ZM223.329 292.797C223.329 286.487 228.643 281.173 234.953 281.173C241.263 281.173 246.576 286.487 246.576 292.797C246.576 299.107 241.263 304.42 234.953 304.42C228.311 304.42 223.329 299.107 223.329 292.797ZM317.313 238.997C317.313 232.687 322.627 227.373 328.937 227.373C335.246 227.373 340.56 232.687 340.56 238.997C340.56 245.307 335.246 250.62 328.937 250.62C322.627 250.62 317.313 245.307 317.313 238.997ZM422.92 304.088C416.611 304.088 411.297 298.775 411.297 292.465C411.297 286.155 416.611 280.841 422.92 280.841C429.23 280.841 434.544 286.155 434.544 292.465C434.544 298.775 429.562 304.088 422.92 304.088ZM410.301 278.849C400.67 272.207 390.043 265.565 379.415 259.587C368.456 253.277 357.829 247.963 346.87 242.982C347.202 241.654 347.202 240.325 347.202 238.997C347.202 238 347.202 237.004 346.87 235.676C365.799 229.034 384.065 224.717 401.334 222.392C407.644 238 412.957 255.934 416.611 275.196C414.286 275.86 412.293 277.188 410.301 278.849ZM311.003 242.982C300.044 247.963 289.417 253.277 278.458 259.587C267.498 265.897 257.203 272.207 247.24 279.181C245.58 277.52 243.255 276.192 241.263 275.528C244.916 255.934 250.229 238 256.539 222.392C273.476 224.717 292.074 229.366 311.003 235.676C310.671 236.672 310.671 237.668 310.671 238.997C310.671 240.325 310.671 241.654 311.003 242.982ZM222.665 306.413C224.658 308.073 226.982 309.402 229.639 310.398C228.643 321.689 227.979 333.645 227.979 345.6C227.979 357.556 228.643 369.511 229.639 380.803C226.982 381.467 224.658 382.795 222.665 384.788C208.053 372.168 195.101 358.884 184.474 345.6C195.101 332.316 208.053 319.033 222.665 306.413ZM247.24 412.02C257.203 418.994 267.498 425.304 278.458 431.614C289.417 437.924 300.044 443.237 311.003 448.219C310.671 449.547 310.671 450.876 310.671 452.204C310.671 453.2 310.671 454.197 311.003 455.525C292.074 462.167 273.808 466.484 256.539 468.809C250.229 452.868 244.916 434.935 241.263 415.673C243.255 415.009 245.58 413.681 247.24 412.02ZM346.87 448.219C357.829 443.237 368.456 437.924 379.415 431.614C390.375 425.304 400.67 418.994 410.633 412.02C412.293 413.681 414.618 415.009 416.611 415.673C412.957 435.267 407.644 453.2 401.334 468.809C384.397 466.484 365.799 461.835 346.87 455.525C347.202 454.529 347.202 453.532 347.202 452.204C347.202 450.876 347.202 449.547 346.87 448.219ZM435.208 384.788C433.215 383.128 430.891 381.799 428.234 380.803C429.23 369.511 429.895 357.556 429.895 345.6C429.895 333.313 429.23 321.357 428.234 309.734C430.559 309.07 432.883 307.741 434.876 306.081C449.82 318.7 462.772 331.984 473.399 345.6C462.772 358.884 449.82 372.168 435.208 384.788ZM328.937 152.983C356.501 152.983 381.408 177.559 398.677 216.414C381.74 218.739 363.475 223.388 344.545 229.698C341.224 224.384 335.579 220.731 328.604 220.731C321.962 220.731 315.985 224.384 312.664 229.698C294.066 223.388 275.801 218.739 258.532 216.414C276.465 177.559 301.372 152.983 328.937 152.983ZM155.581 292.797C150.932 275.86 152.26 261.247 159.234 249.292C170.858 229.698 196.097 220.067 228.643 220.067C235.285 220.067 242.591 220.399 249.897 221.396C243.587 237.336 238.274 254.938 234.621 274.199C224.658 274.199 216.687 282.502 216.687 292.465C216.687 295.454 217.351 298.11 218.68 300.767C203.735 313.387 190.784 326.339 180.156 339.623C167.869 324.014 159.566 308.073 155.581 292.797ZM159.234 441.909C152.26 429.953 150.932 415.341 155.581 398.404C159.566 383.46 168.201 367.187 180.156 351.246C190.784 364.53 203.735 377.814 218.68 390.102C217.351 392.758 216.687 395.415 216.687 398.404C216.687 408.367 224.658 416.669 234.621 416.669C238.274 435.931 243.587 453.865 249.897 469.473C207.056 474.455 173.182 465.488 159.234 441.909ZM328.937 538.218C301.372 538.218 276.465 513.642 259.196 474.787C276.133 472.462 294.398 467.813 313.328 461.503C316.649 466.816 322.295 470.469 329.269 470.469C335.911 470.469 341.888 466.816 345.209 461.503C363.807 467.813 382.072 472.462 399.341 474.787C381.408 513.642 356.501 538.218 328.937 538.218ZM498.639 441.909C484.691 465.488 450.817 474.455 407.976 469.805C414.286 453.865 419.599 436.263 423.253 417.002C433.215 416.669 441.186 408.699 441.186 398.736C441.186 395.747 440.522 393.09 439.193 390.434C454.138 377.814 467.09 364.862 477.717 351.578C489.672 367.519 498.307 383.792 502.292 398.736C506.941 415.341 505.613 429.953 498.639 441.909Z"/>
</mask>
<path d="M482.034 345.6C494.986 328.331 504.285 311.062 508.602 294.789C513.583 275.86 512.255 259.587 504.285 245.971C489.008 220.067 451.813 210.104 405.319 215.418C386.722 173.241 359.49 146.341 328.937 146.341C298.383 146.341 271.151 173.241 252.554 215.418C206.06 210.104 168.865 220.067 153.589 245.971C145.618 259.587 144.29 275.86 149.271 294.789C153.589 311.394 162.887 328.663 175.839 345.6C162.887 362.87 153.589 380.139 149.271 396.411C144.29 415.341 145.618 431.614 153.589 445.23C166.208 466.816 193.772 477.111 229.307 477.111C236.945 477.111 244.584 476.447 252.886 475.783C271.483 517.96 298.716 544.859 329.269 544.859C359.822 544.859 387.054 517.96 405.651 475.783C413.622 476.779 421.592 477.111 429.23 477.111C464.765 477.111 492.329 466.484 504.949 445.23C512.919 431.614 514.248 415.341 509.266 396.411C504.285 380.139 495.318 362.87 482.034 345.6ZM429.23 220.399C462.108 220.399 487.348 230.03 498.639 249.624C505.613 261.579 506.941 276.192 502.292 293.129C498.307 308.073 489.672 324.346 477.717 340.287C467.09 327.003 453.806 313.719 438.861 301.099C440.19 298.442 441.186 295.454 441.186 292.465C441.186 282.502 432.883 274.199 422.92 274.199C419.267 255.27 413.954 237.668 407.644 221.728C415.282 220.731 422.256 220.399 429.23 220.399ZM434.544 398.404C434.544 404.714 429.23 410.027 422.92 410.027C416.611 410.027 411.297 404.714 411.297 398.404C411.297 392.094 416.611 386.781 422.92 386.781C429.23 386.781 434.544 392.094 434.544 398.404ZM421.924 380.139C412.293 380.803 404.655 388.773 404.655 398.404C404.655 401.393 405.319 404.382 406.648 406.707C397.017 413.348 386.722 419.99 376.095 425.968C365.467 431.946 354.84 437.26 344.213 442.241C340.892 437.26 335.246 433.939 328.937 433.939C322.627 433.939 316.981 437.26 313.66 442.241C303.033 437.26 292.406 431.946 281.779 425.968C271.151 419.99 260.856 413.681 251.225 406.707C252.554 404.05 253.218 401.393 253.218 398.404C253.218 388.773 245.58 380.803 235.949 380.139C234.953 368.847 234.288 357.556 234.288 345.6C234.288 333.977 234.953 322.354 235.949 311.062C245.58 310.398 253.218 302.428 253.218 292.797C253.218 289.808 252.554 286.819 251.225 284.494C260.856 277.852 271.151 271.21 281.779 265.233C292.406 259.255 303.033 253.941 313.66 248.96C316.981 253.941 322.627 257.262 328.937 257.262C335.246 257.262 340.892 253.941 344.213 248.96C354.84 253.941 365.467 259.255 376.095 265.233C386.722 271.21 396.685 277.52 406.315 284.162C405.319 286.487 404.655 289.144 404.655 292.133C404.655 301.763 412.293 309.734 421.924 310.398C422.92 321.689 423.585 333.645 423.585 345.6C423.253 357.224 422.92 368.847 421.924 380.139ZM340.56 452.204C340.56 458.514 335.246 463.827 328.937 463.827C322.627 463.827 317.313 458.514 317.313 452.204C317.313 445.894 322.627 440.581 328.937 440.581C335.246 440.581 340.56 445.894 340.56 452.204ZM234.953 386.781C241.263 386.781 246.576 392.094 246.576 398.404C246.576 404.714 241.263 410.027 234.953 410.027C228.643 410.027 223.329 404.714 223.329 398.404C223.329 392.094 228.311 386.781 234.953 386.781ZM223.329 292.797C223.329 286.487 228.643 281.173 234.953 281.173C241.263 281.173 246.576 286.487 246.576 292.797C246.576 299.107 241.263 304.42 234.953 304.42C228.311 304.42 223.329 299.107 223.329 292.797ZM317.313 238.997C317.313 232.687 322.627 227.373 328.937 227.373C335.246 227.373 340.56 232.687 340.56 238.997C340.56 245.307 335.246 250.62 328.937 250.62C322.627 250.62 317.313 245.307 317.313 238.997ZM422.92 304.088C416.611 304.088 411.297 298.775 411.297 292.465C411.297 286.155 416.611 280.841 422.92 280.841C429.23 280.841 434.544 286.155 434.544 292.465C434.544 298.775 429.562 304.088 422.92 304.088ZM410.301 278.849C400.67 272.207 390.043 265.565 379.415 259.587C368.456 253.277 357.829 247.963 346.87 242.982C347.202 241.654 347.202 240.325 347.202 238.997C347.202 238 347.202 237.004 346.87 235.676C365.799 229.034 384.065 224.717 401.334 222.392C407.644 238 412.957 255.934 416.611 275.196C414.286 275.86 412.293 277.188 410.301 278.849ZM311.003 242.982C300.044 247.963 289.417 253.277 278.458 259.587C267.498 265.897 257.203 272.207 247.24 279.181C245.58 277.52 243.255 276.192 241.263 275.528C244.916 255.934 250.229 238 256.539 222.392C273.476 224.717 292.074 229.366 311.003 235.676C310.671 236.672 310.671 237.668 310.671 238.997C310.671 240.325 310.671 241.654 311.003 242.982ZM222.665 306.413C224.658 308.073 226.982 309.402 229.639 310.398C228.643 321.689 227.979 333.645 227.979 345.6C227.979 357.556 228.643 369.511 229.639 380.803C226.982 381.467 224.658 382.795 222.665 384.788C208.053 372.168 195.101 358.884 184.474 345.6C195.101 332.316 208.053 319.033 222.665 306.413ZM247.24 412.02C257.203 418.994 267.498 425.304 278.458 431.614C289.417 437.924 300.044 443.237 311.003 448.219C310.671 449.547 310.671 450.876 310.671 452.204C310.671 453.2 310.671 454.197 311.003 455.525C292.074 462.167 273.808 466.484 256.539 468.809C250.229 452.868 244.916 434.935 241.263 415.673C243.255 415.009 245.58 413.681 247.24 412.02ZM346.87 448.219C357.829 443.237 368.456 437.924 379.415 431.614C390.375 425.304 400.67 418.994 410.633 412.02C412.293 413.681 414.618 415.009 416.611 415.673C412.957 435.267 407.644 453.2 401.334 468.809C384.397 466.484 365.799 461.835 346.87 455.525C347.202 454.529 347.202 453.532 347.202 452.204C347.202 450.876 347.202 449.547 346.87 448.219ZM435.208 384.788C433.215 383.128 430.891 381.799 428.234 380.803C429.23 369.511 429.895 357.556 429.895 345.6C429.895 333.313 429.23 321.357 428.234 309.734C430.559 309.07 432.883 307.741 434.876 306.081C449.82 318.7 462.772 331.984 473.399 345.6C462.772 358.884 449.82 372.168 435.208 384.788ZM328.937 152.983C356.501 152.983 381.408 177.559 398.677 216.414C381.74 218.739 363.475 223.388 344.545 229.698C341.224 224.384 335.579 220.731 328.604 220.731C321.962 220.731 315.985 224.384 312.664 229.698C294.066 223.388 275.801 218.739 258.532 216.414C276.465 177.559 301.372 152.983 328.937 152.983ZM155.581 292.797C150.932 275.86 152.26 261.247 159.234 249.292C170.858 229.698 196.097 220.067 228.643 220.067C235.285 220.067 242.591 220.399 249.897 221.396C243.587 237.336 238.274 254.938 234.621 274.199C224.658 274.199 216.687 282.502 216.687 292.465C216.687 295.454 217.351 298.11 218.68 300.767C203.735 313.387 190.784 326.339 180.156 339.623C167.869 324.014 159.566 308.073 155.581 292.797ZM159.234 441.909C152.26 429.953 150.932 415.341 155.581 398.404C159.566 383.46 168.201 367.187 180.156 351.246C190.784 364.53 203.735 377.814 218.68 390.102C217.351 392.758 216.687 395.415 216.687 398.404C216.687 408.367 224.658 416.669 234.621 416.669C238.274 435.931 243.587 453.865 249.897 469.473C207.056 474.455 173.182 465.488 159.234 441.909ZM328.937 538.218C301.372 538.218 276.465 513.642 259.196 474.787C276.133 472.462 294.398 467.813 313.328 461.503C316.649 466.816 322.295 470.469 329.269 470.469C335.911 470.469 341.888 466.816 345.209 461.503C363.807 467.813 382.072 472.462 399.341 474.787C381.408 513.642 356.501 538.218 328.937 538.218ZM498.639 441.909C484.691 465.488 450.817 474.455 407.976 469.805C414.286 453.865 419.599 436.263 423.253 417.002C433.215 416.669 441.186 408.699 441.186 398.736C441.186 395.747 440.522 393.09 439.193 390.434C454.138 377.814 467.09 364.862 477.717 351.578C489.672 367.519 498.307 383.792 502.292 398.736C506.941 415.341 505.613 429.953 498.639 441.909Z" fill="black"/>
<path d="M482.034 345.6C494.986 328.331 504.285 311.062 508.602 294.789C513.583 275.86 512.255 259.587 504.285 245.971C489.008 220.067 451.813 210.104 405.319 215.418C386.722 173.241 359.49 146.341 328.937 146.341C298.383 146.341 271.151 173.241 252.554 215.418C206.06 210.104 168.865 220.067 153.589 245.971C145.618 259.587 144.29 275.86 149.271 294.789C153.589 311.394 162.887 328.663 175.839 345.6C162.887 362.87 153.589 380.139 149.271 396.411C144.29 415.341 145.618 431.614 153.589 445.23C166.208 466.816 193.772 477.111 229.307 477.111C236.945 477.111 244.584 476.447 252.886 475.783C271.483 517.96 298.716 544.859 329.269 544.859C359.822 544.859 387.054 517.96 405.651 475.783C413.622 476.779 421.592 477.111 429.23 477.111C464.765 477.111 492.329 466.484 504.949 445.23C512.919 431.614 514.248 415.341 509.266 396.411C504.285 380.139 495.318 362.87 482.034 345.6ZM429.23 220.399C462.108 220.399 487.348 230.03 498.639 249.624C505.613 261.579 506.941 276.192 502.292 293.129C498.307 308.073 489.672 324.346 477.717 340.287C467.09 327.003 453.806 313.719 438.861 301.099C440.19 298.442 441.186 295.454 441.186 292.465C441.186 282.502 432.883 274.199 422.92 274.199C419.267 255.27 413.954 237.668 407.644 221.728C415.282 220.731 422.256 220.399 429.23 220.399ZM434.544 398.404C434.544 404.714 429.23 410.027 422.92 410.027C416.611 410.027 411.297 404.714 411.297 398.404C411.297 392.094 416.611 386.781 422.92 386.781C429.23 386.781 434.544 392.094 434.544 398.404ZM421.924 380.139C412.293 380.803 404.655 388.773 404.655 398.404C404.655 401.393 405.319 404.382 406.648 406.707C397.017 413.348 386.722 419.99 376.095 425.968C365.467 431.946 354.84 437.26 344.213 442.241C340.892 437.26 335.246 433.939 328.937 433.939C322.627 433.939 316.981 437.26 313.66 442.241C303.033 437.26 292.406 431.946 281.779 425.968C271.151 419.99 260.856 413.681 251.225 406.707C252.554 404.05 253.218 401.393 253.218 398.404C253.218 388.773 245.58 380.803 235.949 380.139C234.953 368.847 234.288 357.556 234.288 345.6C234.288 333.977 234.953 322.354 235.949 311.062C245.58 310.398 253.218 302.428 253.218 292.797C253.218 289.808 252.554 286.819 251.225 284.494C260.856 277.852 271.151 271.21 281.779 265.233C292.406 259.255 303.033 253.941 313.66 248.96C316.981 253.941 322.627 257.262 328.937 257.262C335.246 257.262 340.892 253.941 344.213 248.96C354.84 253.941 365.467 259.255 376.095 265.233C386.722 271.21 396.685 277.52 406.315 284.162C405.319 286.487 404.655 289.144 404.655 292.133C404.655 301.763 412.293 309.734 421.924 310.398C422.92 321.689 423.585 333.645 423.585 345.6C423.253 357.224 422.92 368.847 421.924 380.139ZM340.56 452.204C340.56 458.514 335.246 463.827 328.937 463.827C322.627 463.827 317.313 458.514 317.313 452.204C317.313 445.894 322.627 440.581 328.937 440.581C335.246 440.581 340.56 445.894 340.56 452.204ZM234.953 386.781C241.263 386.781 246.576 392.094 246.576 398.404C246.576 404.714 241.263 410.027 234.953 410.027C228.643 410.027 223.329 404.714 223.329 398.404C223.329 392.094 228.311 386.781 234.953 386.781ZM223.329 292.797C223.329 286.487 228.643 281.173 234.953 281.173C241.263 281.173 246.576 286.487 246.576 292.797C246.576 299.107 241.263 304.42 234.953 304.42C228.311 304.42 223.329 299.107 223.329 292.797ZM317.313 238.997C317.313 232.687 322.627 227.373 328.937 227.373C335.246 227.373 340.56 232.687 340.56 238.997C340.56 245.307 335.246 250.62 328.937 250.62C322.627 250.62 317.313 245.307 317.313 238.997ZM422.92 304.088C416.611 304.088 411.297 298.775 411.297 292.465C411.297 286.155 416.611 280.841 422.92 280.841C429.23 280.841 434.544 286.155 434.544 292.465C434.544 298.775 429.562 304.088 422.92 304.088ZM410.301 278.849C400.67 272.207 390.043 265.565 379.415 259.587C368.456 253.277 357.829 247.963 346.87 242.982C347.202 241.654 347.202 240.325 347.202 238.997C347.202 238 347.202 237.004 346.87 235.676C365.799 229.034 384.065 224.717 401.334 222.392C407.644 238 412.957 255.934 416.611 275.196C414.286 275.86 412.293 277.188 410.301 278.849ZM311.003 242.982C300.044 247.963 289.417 253.277 278.458 259.587C267.498 265.897 257.203 272.207 247.24 279.181C245.58 277.52 243.255 276.192 241.263 275.528C244.916 255.934 250.229 238 256.539 222.392C273.476 224.717 292.074 229.366 311.003 235.676C310.671 236.672 310.671 237.668 310.671 238.997C310.671 240.325 310.671 241.654 311.003 242.982ZM222.665 306.413C224.658 308.073 226.982 309.402 229.639 310.398C228.643 321.689 227.979 333.645 227.979 345.6C227.979 357.556 228.643 369.511 229.639 380.803C226.982 381.467 224.658 382.795 222.665 384.788C208.053 372.168 195.101 358.884 184.474 345.6C195.101 332.316 208.053 319.033 222.665 306.413ZM247.24 412.02C257.203 418.994 267.498 425.304 278.458 431.614C289.417 437.924 300.044 443.237 311.003 448.219C310.671 449.547 310.671 450.876 310.671 452.204C310.671 453.2 310.671 454.197 311.003 455.525C292.074 462.167 273.808 466.484 256.539 468.809C250.229 452.868 244.916 434.935 241.263 415.673C243.255 415.009 245.58 413.681 247.24 412.02ZM346.87 448.219C357.829 443.237 368.456 437.924 379.415 431.614C390.375 425.304 400.67 418.994 410.633 412.02C412.293 413.681 414.618 415.009 416.611 415.673C412.957 435.267 407.644 453.2 401.334 468.809C384.397 466.484 365.799 461.835 346.87 455.525C347.202 454.529 347.202 453.532 347.202 452.204C347.202 450.876 347.202 449.547 346.87 448.219ZM435.208 384.788C433.215 383.128 430.891 381.799 428.234 380.803C429.23 369.511 429.895 357.556 429.895 345.6C429.895 333.313 429.23 321.357 428.234 309.734C430.559 309.07 432.883 307.741 434.876 306.081C449.82 318.7 462.772 331.984 473.399 345.6C462.772 358.884 449.82 372.168 435.208 384.788ZM328.937 152.983C356.501 152.983 381.408 177.559 398.677 216.414C381.74 218.739 363.475 223.388 344.545 229.698C341.224 224.384 335.579 220.731 328.604 220.731C321.962 220.731 315.985 224.384 312.664 229.698C294.066 223.388 275.801 218.739 258.532 216.414C276.465 177.559 301.372 152.983 328.937 152.983ZM155.581 292.797C150.932 275.86 152.26 261.247 159.234 249.292C170.858 229.698 196.097 220.067 228.643 220.067C235.285 220.067 242.591 220.399 249.897 221.396C243.587 237.336 238.274 254.938 234.621 274.199C224.658 274.199 216.687 282.502 216.687 292.465C216.687 295.454 217.351 298.11 218.68 300.767C203.735 313.387 190.784 326.339 180.156 339.623C167.869 324.014 159.566 308.073 155.581 292.797ZM159.234 441.909C152.26 429.953 150.932 415.341 155.581 398.404C159.566 383.46 168.201 367.187 180.156 351.246C190.784 364.53 203.735 377.814 218.68 390.102C217.351 392.758 216.687 395.415 216.687 398.404C216.687 408.367 224.658 416.669 234.621 416.669C238.274 435.931 243.587 453.865 249.897 469.473C207.056 474.455 173.182 465.488 159.234 441.909ZM328.937 538.218C301.372 538.218 276.465 513.642 259.196 474.787C276.133 472.462 294.398 467.813 313.328 461.503C316.649 466.816 322.295 470.469 329.269 470.469C335.911 470.469 341.888 466.816 345.209 461.503C363.807 467.813 382.072 472.462 399.341 474.787C381.408 513.642 356.501 538.218 328.937 538.218ZM498.639 441.909C484.691 465.488 450.817 474.455 407.976 469.805C414.286 453.865 419.599 436.263 423.253 417.002C433.215 416.669 441.186 408.699 441.186 398.736C441.186 395.747 440.522 393.09 439.193 390.434C454.138 377.814 467.09 364.862 477.717 351.578C489.672 367.519 498.307 383.792 502.292 398.736C506.941 415.341 505.613 429.953 498.639 441.909Z" stroke="black" stroke-width="10" mask="url(#path-14-outside-1_22_92)"/>
<path d="M328.937 324.835C340.642 324.835 349.702 334.287 349.702 345.601C349.702 356.944 340.28 366.366 328.937 366.366C317.593 366.366 308.171 356.944 308.171 345.601C308.171 334.287 317.231 324.835 328.937 324.835ZM328.937 336.477C324.007 336.477 319.812 340.671 319.812 345.601C319.813 350.53 324.007 354.724 328.937 354.724C333.866 354.724 338.059 350.53 338.06 345.601C338.06 340.671 333.866 336.477 328.937 336.477Z" fill="black" stroke="black" stroke-width="5"/>
<path d="M909.65 474.576C890.815 474.576 871.979 471.045 853.929 463.981C835.878 457.311 819.789 447.5 806.448 435.728C804.878 434.159 804.486 431.804 805.27 429.842L819.005 383.146C819.789 381.576 820.967 380.399 822.536 380.399C824.106 380.006 825.675 380.399 826.853 381.576C847.65 401.196 871.195 418.855 900.625 420.424C908.473 420.817 917.106 421.209 924.562 418.855C947.714 411.399 937.904 387.855 920.638 380.791C914.752 378.437 906.511 375.69 895.916 372.551C880.22 368.234 867.271 363.525 857.46 358.817C846.865 354.108 837.84 346.652 829.992 336.842C822.536 326.639 818.612 313.297 818.612 297.209C818.612 281.905 822.536 268.563 830.384 257.183C838.232 245.803 849.22 236.778 862.954 230.892C876.688 225.006 892.777 221.867 910.828 221.867C926.916 221.867 942.613 224.221 958.309 229.322C973.613 234.031 987.347 240.702 999.512 248.55C1001.47 250.12 1002.26 252.474 1001.08 254.829L988.132 298.778C987.739 300.348 986.562 301.133 984.993 301.525C983.815 301.918 982.246 301.918 981.068 301.133C963.41 290.145 945.752 276.804 924.954 274.057C911.22 272.095 890.423 272.88 885.714 289.361C879.828 310.551 910.828 316.044 924.954 320.361C940.651 325.07 953.6 329.778 963.803 334.487C974.398 339.589 983.815 347.437 991.271 357.247C999.119 367.449 1003.04 381.184 1003.04 397.665C1003.04 413.753 998.727 427.488 990.486 439.26C982.638 451.032 971.258 459.665 957.132 465.943C943.005 471.437 927.309 474.576 909.65 474.576ZM1047.39 472.222C1044.64 472.222 1042.28 469.868 1042.28 467.121V232.069C1042.28 229.322 1044.64 226.968 1047.39 226.968H1098.4C1101.14 226.968 1103.5 229.322 1103.5 232.069V467.121C1103.5 469.868 1101.14 472.222 1098.4 472.222H1047.39ZM1147.84 472.222C1145.09 472.222 1142.74 469.868 1142.74 467.121V232.069C1142.74 229.322 1145.09 226.968 1147.84 226.968H1198.85C1201.6 226.968 1203.96 229.322 1203.96 232.069V415.715H1292.25C1294.99 415.715 1297.35 418.07 1297.35 420.817V467.121C1297.35 469.868 1294.99 472.222 1292.25 472.222H1147.84ZM1388.78 472.222C1386.82 472.222 1384.85 471.045 1384.07 469.083L1305.59 233.639C1304.8 232.069 1305.2 230.5 1305.98 228.93C1307.16 227.753 1308.73 226.968 1310.3 226.968H1365.23C1367.2 226.968 1369.16 228.145 1369.94 230.5L1416.64 383.931L1463.73 230.5C1464.51 228.145 1466.48 226.968 1468.44 226.968H1521.02C1522.59 226.968 1524.16 227.753 1525.34 228.93C1526.12 230.5 1526.51 232.069 1525.73 233.639L1446.07 469.083C1445.29 471.045 1443.72 472.222 1441.36 472.222H1388.78ZM1565.36 472.222V237.171C1565.36 227.36 1567.32 225.398 1570.46 225.398H1742.34C1745.08 225.398 1747.44 227.36 1747.44 230.107V274.449C1747.44 277.196 1745.08 279.55 1742.34 279.55H1626.18V320.361H1699.56C1702.31 320.361 1704.67 322.715 1704.67 325.462V369.411C1704.67 372.158 1702.31 374.513 1699.56 374.513H1626.18V416.5H1741.94C1744.69 416.5 1747.05 418.855 1747.05 421.602V465.551C1747.05 468.298 1744.69 470.652 1741.94 470.652H1570.46C1567.32 470.652 1565.36 468.298 1565.36 472.222ZM1791.78 472.222C1788.64 472.222 1786.68 469.868 1786.68 467.121V232.069C1786.68 229.322 1788.64 226.968 1791.78 226.968H1887.53C1917.35 226.968 1940.89 234.424 1957.38 249.728C1981.71 271.702 1989.95 313.297 1978.17 343.905C1973.86 354.892 1966.4 365.095 1956.98 372.551C1951.49 376.867 1945.6 380.006 1939.72 383.146C1956.59 409.829 1982.1 463.981 1982.1 463.981C1982.49 464.766 1983.27 465.943 1983.27 467.121C1983.27 469.868 1980.92 472.222 1978.17 472.222H1920.1C1918.53 472.222 1916.57 471.045 1915.78 469.475L1881.64 394.526C1869.48 395.31 1860.06 394.918 1847.5 394.918V467.121C1847.5 469.868 1845.15 472.222 1842.4 472.222H1791.78ZM1847.5 340.373C1847.5 340.373 1896.95 345.867 1914.21 334.487C1920.88 330.171 1924.81 319.576 1924.81 311.728C1924.41 303.095 1920.1 294.069 1913.03 288.576C1905.58 282.297 1887.14 280.335 1877.72 280.335L1847.5 281.12V340.373ZM2146.52 472.222C2123.36 472.222 2102.17 466.728 2083.34 455.741C2064.5 444.361 2049.59 429.057 2039 409.829C2028.4 390.601 2022.91 369.019 2022.91 345.082C2022.91 321.93 2028.4 300.348 2039.39 281.12C2050.38 262.285 2065.68 246.981 2084.52 235.993C2103.74 225.006 2125.33 219.512 2148.09 219.512C2165.35 219.512 2182.22 223.436 2198.71 230.5C2215.19 237.955 2229.31 247.765 2241.09 260.322C2242.66 262.285 2242.66 265.031 2241.09 266.993L2203.81 297.601C2202.63 298.778 2201.45 299.563 2199.88 299.563C2198.31 299.563 2196.74 298.778 2195.96 297.601C2175.95 273.272 2143.77 268.171 2116.69 285.044C2093.15 299.563 2084.52 326.247 2085.69 352.93C2086.87 380.006 2106.49 403.158 2132.39 411.007C2155.93 418.07 2179.09 412.576 2195.96 394.526C2197.14 393.741 2198.31 392.956 2199.88 393.348C2201.45 393.348 2202.63 393.741 2203.41 394.918L2241.48 421.602C2243.05 423.564 2243.05 426.31 2241.48 428.272C2228.92 441.614 2214.01 452.602 2197.53 460.45C2180.66 468.298 2163.39 472.222 2146.52 472.222ZM2408.25 472.222C2384.71 472.222 2363.12 466.728 2344.29 455.741C2325.06 444.754 2309.76 429.057 2298.38 410.222C2287.39 390.994 2281.9 369.019 2281.9 345.475C2281.9 322.323 2287.39 300.74 2298.38 281.512C2309.76 262.285 2324.67 246.981 2343.9 235.993C2363.12 225.006 2384.71 219.512 2408.25 219.512C2431.4 219.512 2452.99 225.006 2472.21 235.993C2491.44 246.981 2506.74 262.285 2517.73 281.512C2529.11 300.74 2534.61 322.323 2534.61 345.475C2534.61 369.019 2529.11 390.601 2517.73 409.829C2506.74 429.057 2491.44 444.361 2472.21 455.741C2452.99 466.728 2431.4 472.222 2408.25 472.222ZM2409.04 415.715C2420.42 415.715 2431.01 412.576 2440.43 406.69C2450.24 400.412 2458.09 392.171 2463.58 381.184C2469.47 370.589 2472.21 358.424 2472.21 345.475C2472.21 332.918 2469.47 320.753 2463.58 310.158C2458.09 299.563 2450.24 291.323 2440.43 285.044C2431.01 279.158 2420.42 276.019 2409.04 276.019C2397.26 276.019 2386.67 279.158 2376.86 285.044C2366.66 291.323 2358.81 299.563 2352.92 310.158C2347.04 321.145 2344.29 332.918 2344.29 345.475C2344.29 358.424 2347.04 370.589 2352.92 381.184C2359.2 391.779 2367.05 400.412 2376.86 406.298C2386.67 412.576 2397.26 415.715 2409.04 415.715ZM2586.8 472.222C2583.66 472.222 2581.69 469.868 2581.69 467.121V232.069C2581.69 229.322 2583.66 226.968 2586.8 226.968H2682.54C2712.37 226.968 2735.91 234.424 2752.39 249.728C2776.72 271.702 2784.96 313.297 2773.19 343.905C2768.87 354.892 2761.42 365.095 2752 372.551C2746.51 376.867 2740.62 380.006 2734.73 383.146C2751.61 409.829 2777.11 463.981 2777.11 463.981C2777.51 464.766 2778.29 465.943 2778.29 467.121C2778.29 469.868 2775.94 472.222 2773.19 472.222H2715.11C2713.54 472.222 2711.58 471.045 2710.8 469.475L2676.66 394.526C2664.49 395.31 2655.07 394.918 2642.52 394.918V467.121C2642.52 469.868 2640.16 472.222 2637.42 472.222H2586.8ZM2642.52 340.373C2642.52 340.373 2691.96 345.867 2709.23 334.487C2715.9 330.171 2719.82 319.576 2719.82 311.728C2719.43 303.095 2715.11 294.069 2708.05 288.576C2700.59 282.297 2682.15 280.335 2672.73 280.335L2642.52 281.12V340.373ZM2817.92 472.222V237.171C2817.92 227.36 2819.89 225.398 2823.02 225.398H2994.9C2997.65 225.398 3000 227.36 3000 230.107V274.449C3000 277.196 2997.65 279.55 2994.9 279.55H2878.75V320.361H2952.13C2954.87 320.361 2957.23 322.715 2957.23 325.462V369.411C2957.23 372.158 2954.87 374.513 2952.13 374.513H2878.75V416.5H2994.51C2997.25 416.5 2999.61 418.855 2999.61 421.602V465.551C2999.61 468.298 2997.25 470.652 2994.51 470.652H2823.02C2819.89 470.652 2817.92 468.298 2817.92 472.222Z" fill="white"/>
</svg>
