
        <svg xmlns="http://www.w3.org/2000/svg" xmlns:xlink="http://www.w3.org/1999/xlink" version="1.1" width="3146.3414634146343" height="834.1463414634147" viewBox="0 0 3146.3414634146343 834.1463414634147">
			
			<g transform="scale(7.317073170731708) translate(10, 10)">
				<defs id="SvgjsDefs1001"/><g id="SvgjsG1007" featureKey="symbolContainer" transform="matrix(1,0,0,1,0,0)" fill="#fff"><rect xmlns="http://www.w3.org/2000/svg" width="90" height="94" rx="10" ry="10"/></g><g id="SvgjsG1008" featureKey="uHI19F-0" transform="matrix(0.4538679541771767,0,0,0.4538679541771767,10.914516468157148,13.191980687342351)" fill="#000000"><g xmlns="http://www.w3.org/2000/svg"><path d="M83.7,71.1c0.2,0,0.3,0,0.5-0.1l1.7-1c0.5-0.3,0.6-0.9,0.4-1.4c-0.3-0.5-0.9-0.6-1.4-0.4l-1.7,1     c-0.5,0.3-0.6,0.9-0.4,1.4C83,70.9,83.3,71.1,83.7,71.1z"/><path d="M92.4,66.1c0.2,0,0.3,0,0.5-0.1l1.7-1c0.5-0.3,0.6-0.9,0.4-1.4c-0.3-0.5-0.9-0.6-1.4-0.4l-1.7,1     c-0.5,0.3-0.6,0.9-0.4,1.4C91.7,65.9,92,66.1,92.4,66.1z"/><path d="M66.4,69l-1.7-1c-0.5-0.3-1.1-0.1-1.4,0.4c-0.3,0.5-0.1,1.1,0.4,1.4l1.7,1c0.2,0.1,0.3,0.1,0.5,0.1     c0.3,0,0.7-0.2,0.9-0.5C67,69.9,66.8,69.3,66.4,69z"/><path d="M57.6,64.1l-1.7-1c-0.5-0.3-1.1-0.1-1.4,0.4c-0.3,0.5-0.1,1.1,0.4,1.4l1.7,1c0.2,0.1,0.3,0.1,0.5,0.1     c0.3,0,0.7-0.2,0.9-0.5C58.3,65,58.1,64.4,57.6,64.1z"/><path d="M75,94c-0.6,0-1,0.4-1,1v2c0,0.6,0.4,1,1,1s1-0.4,1-1v-2C76,94.4,75.6,94,75,94z"/><path d="M75,84c-0.6,0-1,0.4-1,1v2c0,0.6,0.4,1,1,1s1-0.4,1-1v-2C76,84.4,75.6,84,75,84z"/><path d="M75,65.9c0.6,0,1-0.4,1-1v-2c0-0.6-0.4-1-1-1s-1,0.4-1,1v2C74,65.4,74.4,65.9,75,65.9z"/><path d="M75,55.9c0.6,0,1-0.4,1-1v-2c0-0.6-0.4-1-1-1s-1,0.4-1,1v2C74,55.4,74.4,55.9,75,55.9z"/><path d="M94.7,84.9l-1.7-1c-0.5-0.3-1.1-0.1-1.4,0.4c-0.3,0.5-0.1,1.1,0.4,1.4l1.7,1c0.2,0.1,0.3,0.1,0.5,0.1     c0.3,0,0.7-0.2,0.9-0.5C95.3,85.8,95.2,85.2,94.7,84.9z"/><path d="M86,80l-1.7-1c-0.5-0.3-1.1-0.1-1.4,0.4s-0.1,1.1,0.4,1.4l1.7,1c0.2,0.1,0.3,0.1,0.5,0.1c0.3,0,0.7-0.2,0.9-0.5     C86.6,80.9,86.4,80.3,86,80z"/><path d="M56.7,84.2l-1.7,1c-0.5,0.3-0.7,0.9-0.4,1.4c0.2,0.3,0.5,0.5,0.9,0.5c0.2,0,0.3,0,0.5-0.1l1.7-1c0.5-0.3,0.7-0.9,0.4-1.4     C57.8,84.1,57.1,83.9,56.7,84.2z"/><path d="M65.4,79.3l-1.7,1c-0.5,0.3-0.7,0.9-0.4,1.4c0.2,0.3,0.5,0.5,0.9,0.5c0.2,0,0.3,0,0.5-0.1l1.7-1c0.5-0.3,0.7-0.9,0.4-1.4     C66.5,79.2,65.9,79,65.4,79.3z"/><path d="M121.1,75c3.9-5.2,6.7-10.4,8-15.3c1.5-5.7,1.1-10.6-1.3-14.7c-4.6-7.8-15.8-10.8-29.8-9.2C92.4,23.1,84.2,15,75,15     c-9.2,0-17.4,8.1-23,20.8c-14-1.6-25.2,1.4-29.8,9.2c-2.4,4.1-2.8,9-1.3,14.7c1.3,5,4.1,10.2,8,15.3c-3.9,5.2-6.7,10.4-8,15.3     c-1.5,5.7-1.1,10.6,1.3,14.7c3.8,6.5,12.1,9.6,22.8,9.6c2.3,0,4.6-0.2,7.1-0.4c5.6,12.7,13.8,20.8,23,20.8     c9.2,0,17.4-8.1,23-20.8c2.4,0.3,4.8,0.4,7.1,0.4c10.7,0,19-3.2,22.8-9.6c2.4-4.1,2.8-9,1.3-14.7C127.8,85.4,125.1,80.2,121.1,75     z M105.2,37.3c9.9,0,17.5,2.9,20.9,8.8c2.1,3.6,2.5,8,1.1,13.1c-1.2,4.5-3.8,9.4-7.4,14.2c-3.2-4-7.2-8-11.7-11.8     c0.4-0.8,0.7-1.7,0.7-2.6c0-3-2.5-5.5-5.5-5.5c-1.1-5.7-2.7-11-4.6-15.8C101,37.4,103.1,37.3,105.2,37.3z M106.8,90.9     c0,1.9-1.6,3.5-3.5,3.5s-3.5-1.6-3.5-3.5s1.6-3.5,3.5-3.5S106.8,89,106.8,90.9z M103,85.4c-2.9,0.2-5.2,2.6-5.2,5.5     c0,0.9,0.2,1.8,0.6,2.5c-2.9,2-6,4-9.2,5.8c-3.2,1.8-6.4,3.4-9.6,4.9c-1-1.5-2.7-2.5-4.6-2.5c-1.9,0-3.6,1-4.6,2.5     c-3.2-1.5-6.4-3.1-9.6-4.9c-3.2-1.8-6.3-3.7-9.2-5.8c0.4-0.8,0.6-1.6,0.6-2.5c0-2.9-2.3-5.3-5.2-5.5c-0.3-3.4-0.5-6.8-0.5-10.4     c0-3.5,0.2-7,0.5-10.4c2.9-0.2,5.2-2.6,5.2-5.5c0-0.9-0.2-1.8-0.6-2.5c2.9-2,6-4,9.2-5.8c3.2-1.8,6.4-3.4,9.6-4.9     c1,1.5,2.7,2.5,4.6,2.5c1.9,0,3.6-1,4.6-2.5c3.2,1.5,6.4,3.1,9.6,4.9c3.2,1.8,6.2,3.7,9.1,5.7c-0.3,0.7-0.5,1.5-0.5,2.4     c0,2.9,2.3,5.3,5.2,5.5c0.3,3.4,0.5,7,0.5,10.6C103.4,78.5,103.3,82,103,85.4z M78.5,107.1c0,1.9-1.6,3.5-3.5,3.5     s-3.5-1.6-3.5-3.5s1.6-3.5,3.5-3.5S78.5,105.2,78.5,107.1z M46.7,87.4c1.9,0,3.5,1.6,3.5,3.5s-1.6,3.5-3.5,3.5     c-1.9,0-3.5-1.6-3.5-3.5S44.7,87.4,46.7,87.4z M43.2,59.1c0-1.9,1.6-3.5,3.5-3.5c1.9,0,3.5,1.6,3.5,3.5c0,1.9-1.6,3.5-3.5,3.5     C44.7,62.6,43.2,61,43.2,59.1z M71.5,42.9c0-1.9,1.6-3.5,3.5-3.5s3.5,1.6,3.5,3.5c0,1.9-1.6,3.5-3.5,3.5S71.5,44.8,71.5,42.9z      M103.3,62.5c-1.9,0-3.5-1.6-3.5-3.5s1.6-3.5,3.5-3.5s3.5,1.6,3.5,3.5S105.3,62.5,103.3,62.5z M99.5,54.9c-2.9-2-6.1-4-9.3-5.8     c-3.3-1.9-6.5-3.5-9.8-5c0.1-0.4,0.1-0.8,0.1-1.2c0-0.3,0-0.6-0.1-1c5.7-2,11.2-3.3,16.4-4c1.9,4.7,3.5,10.1,4.6,15.9     C100.7,54,100.1,54.4,99.5,54.9z M69.6,44.1c-3.3,1.5-6.5,3.1-9.8,5c-3.3,1.9-6.4,3.8-9.4,5.9c-0.5-0.5-1.2-0.9-1.8-1.1     c1.1-5.9,2.7-11.3,4.6-16c5.1,0.7,10.7,2.1,16.4,4c-0.1,0.3-0.1,0.6-0.1,1C69.5,43.3,69.5,43.7,69.6,44.1z M43,63.2     c0.6,0.5,1.3,0.9,2.1,1.2c-0.3,3.4-0.5,7-0.5,10.6c0,3.6,0.2,7.2,0.5,10.6c-0.8,0.2-1.5,0.6-2.1,1.2C38.6,83,34.7,79,31.5,75     C34.7,71,38.6,67,43,63.2z M50.4,95c3,2.1,6.1,4,9.4,5.9c3.3,1.9,6.5,3.5,9.8,5c-0.1,0.4-0.1,0.8-0.1,1.2c0,0.3,0,0.6,0.1,1     c-5.7,2-11.2,3.3-16.4,4c-1.9-4.8-3.5-10.2-4.6-16C49.2,95.9,49.9,95.5,50.4,95z M80.4,105.9c3.3-1.5,6.5-3.1,9.8-5     c3.3-1.9,6.4-3.8,9.4-5.9c0.5,0.5,1.2,0.9,1.8,1.1c-1.1,5.9-2.7,11.3-4.6,16c-5.1-0.7-10.7-2.1-16.4-4c0.1-0.3,0.1-0.6,0.1-1     C80.5,106.7,80.5,106.3,80.4,105.9z M107,86.8c-0.6-0.5-1.3-0.9-2.1-1.2c0.3-3.4,0.5-7,0.5-10.6c0-3.7-0.2-7.3-0.5-10.8     c0.7-0.2,1.4-0.6,2-1.1c4.5,3.8,8.4,7.8,11.6,11.9C115.3,79,111.4,83,107,86.8z M75,17c8.3,0,15.8,7.4,21,19.1     c-5.1,0.7-10.6,2.1-16.3,4c-1-1.6-2.7-2.7-4.8-2.7c-2,0-3.8,1.1-4.8,2.7c-5.6-1.9-11.1-3.3-16.3-4C59.2,24.4,66.7,17,75,17z      M22.8,59.1c-1.4-5.1-1-9.5,1.1-13.1c3.5-5.9,11.1-8.8,20.9-8.8c2,0,4.2,0.1,6.4,0.4c-1.9,4.8-3.5,10.1-4.6,15.9     c-3,0-5.4,2.5-5.4,5.5c0,0.9,0.2,1.7,0.6,2.5c-4.5,3.8-8.4,7.7-11.6,11.7C26.5,68.5,24,63.7,22.8,59.1z M23.9,104     c-2.1-3.6-2.5-8-1.1-13.1c1.2-4.5,3.8-9.4,7.4-14.2c3.2,4,7.1,8,11.6,11.7c-0.4,0.8-0.6,1.6-0.6,2.5c0,3,2.4,5.5,5.4,5.5     c1.1,5.8,2.7,11.2,4.6,15.9C38.3,113.8,28.1,111.1,23.9,104z M75,133c-8.3,0-15.8-7.4-21-19.1c5.1-0.7,10.6-2.1,16.3-4     c1,1.6,2.7,2.7,4.8,2.7c2,0,3.8-1.1,4.8-2.7c5.6,1.9,11.1,3.3,16.3,4C90.8,125.6,83.3,133,75,133z M126.1,104     c-4.2,7.1-14.4,9.8-27.3,8.4c1.9-4.8,3.5-10.1,4.6-15.9c3-0.1,5.4-2.5,5.4-5.5c0-0.9-0.2-1.7-0.6-2.5c4.5-3.8,8.4-7.7,11.6-11.7     c3.6,4.8,6.2,9.7,7.4,14.2C128.6,96,128.2,100.4,126.1,104z"/><path d="M75,69.5c-3.1,0-5.5,2.5-5.5,5.5s2.5,5.5,5.5,5.5s5.5-2.5,5.5-5.5S78.1,69.5,75,69.5z M75,78.5c-1.9,0-3.5-1.6-3.5-3.5     s1.6-3.5,3.5-3.5s3.5,1.6,3.5,3.5S76.9,78.5,75,78.5z"/></g></g><g id="SvgjsG1009" featureKey="8FbbNb-0" transform="matrix(2.6814442876922624,0,0,2.6814442876922624,107.31855587213427,10.908119535722587)" fill="#fff"><path d="M6.34 20.12 c-0.96 0 -1.92 -0.18 -2.84 -0.54 c-0.92 -0.34 -1.74 -0.84 -2.42 -1.44 c-0.08 -0.08 -0.1 -0.2 -0.06 -0.3 l0.7 -2.38 c0.04 -0.08 0.1 -0.14 0.18 -0.14 c0.08 -0.02 0.16 0 0.22 0.06 c1.06 1 2.26 1.9 3.76 1.98 c0.4 0.02 0.84 0.04 1.22 -0.08 c1.18 -0.38 0.68 -1.58 -0.2 -1.94 c-0.3 -0.12 -0.72 -0.26 -1.26 -0.42 c-0.8 -0.22 -1.46 -0.46 -1.96 -0.7 c-0.54 -0.24 -1 -0.62 -1.4 -1.12 c-0.38 -0.52 -0.58 -1.2 -0.58 -2.02 c0 -0.78 0.2 -1.46 0.6 -2.04 s0.96 -1.04 1.66 -1.34 s1.52 -0.46 2.44 -0.46 c0.82 0 1.62 0.12 2.42 0.38 c0.78 0.24 1.48 0.58 2.1 0.98 c0.1 0.08 0.14 0.2 0.08 0.32 l-0.66 2.24 c-0.02 0.08 -0.08 0.12 -0.16 0.14 c-0.06 0.02 -0.14 0.02 -0.2 -0.02 c-0.9 -0.56 -1.8 -1.24 -2.86 -1.38 c-0.7 -0.1 -1.76 -0.06 -2 0.78 c-0.3 1.08 1.28 1.36 2 1.58 c0.8 0.24 1.46 0.48 1.98 0.72 c0.54 0.26 1.02 0.66 1.4 1.16 c0.4 0.52 0.6 1.22 0.6 2.06 c0 0.82 -0.22 1.52 -0.64 2.12 c-0.4 0.6 -0.98 1.04 -1.7 1.36 c-0.72 0.28 -1.52 0.44 -2.42 0.44 z M13.36 20 c-0.14 0 -0.26 -0.12 -0.26 -0.26 l0 -11.98 c0 -0.14 0.12 -0.26 0.26 -0.26 l2.6 0 c0.14 0 0.26 0.12 0.26 0.26 l0 11.98 c0 0.14 -0.12 0.26 -0.26 0.26 l-2.6 0 z M18.48 20 c-0.14 0 -0.26 -0.12 -0.26 -0.26 l0 -11.98 c0 -0.14 0.12 -0.26 0.26 -0.26 l2.6 0 c0.14 0 0.26 0.12 0.26 0.26 l0 9.36 l4.5 0 c0.14 0 0.26 0.12 0.26 0.26 l0 2.36 c0 0.14 -0.12 0.26 -0.26 0.26 l-7.36 0 z M30.759999999999998 20 c-0.1 0 -0.2 -0.06 -0.24 -0.16 l-4 -12 c-0.04 -0.08 -0.02 -0.16 0.02 -0.24 c0.06 -0.06 0.14 -0.1 0.22 -0.1 l2.8 0 c0.1 0 0.2 0.06 0.24 0.18 l2.38 7.82 l2.4 -7.82 c0.04 -0.12 0.14 -0.18 0.24 -0.18 l2.68 0 c0.08 0 0.16 0.04 0.22 0.1 c0.04 0.08 0.06 0.16 0.02 0.24 l-4.06 12 c-0.04 0.1 -0.12 0.16 -0.24 0.16 l-2.68 0 z M39.76 20 l0 -11.98 c0 -0.5 0.1 -0.6 0.26 -0.6 l8.76 0 c0.14 0 0.26 0.1 0.26 0.24 l0 2.26 c0 0.14 -0.12 0.26 -0.26 0.26 l-5.92 0 l0 2.08 l3.74 0 c0.14 0 0.26 0.12 0.26 0.26 l0 2.24 c0 0.14 -0.12 0.26 -0.26 0.26 l-3.74 0 l0 2.14 l5.9 0 c0.14 0 0.26 0.12 0.26 0.26 l0 2.24 c0 0.14 -0.12 0.26 -0.26 0.26 l-8.74 0 c-0.16 0 -0.26 -0.12 -0.26 0.08 z M51.3 20 c-0.16 0 -0.26 -0.12 -0.26 -0.26 l0 -11.98 c0 -0.14 0.1 -0.26 0.26 -0.26 l4.88 0 c1.52 0 2.72 0.38 3.56 1.16 c1.24 1.12 1.66 3.24 1.06 4.8 c-0.22 0.56 -0.6 1.08 -1.08 1.46 c-0.28 0.22 -0.58 0.38 -0.88 0.54 c0.86 1.36 2.16 4.12 2.16 4.12 c0.02 0.04 0.06 0.1 0.06 0.16 c0 0.14 -0.12 0.26 -0.26 0.26 l-2.96 0 c-0.08 0 -0.18 -0.06 -0.22 -0.14 l-1.74 -3.82 c-0.62 0.04 -1.1 0.02 -1.74 0.02 l0 3.68 c0 0.14 -0.12 0.26 -0.26 0.26 l-2.58 0 z M54.14 13.280000000000001 c0 0 2.52 0.28 3.4 -0.3 c0.34 -0.22 0.54 -0.76 0.54 -1.16 c-0.02 -0.44 -0.24 -0.9 -0.6 -1.18 c-0.38 -0.32 -1.32 -0.42 -1.8 -0.42 l-1.54 0.04 l0 3.02 z M69.38 20 c-1.18 0 -2.26 -0.28 -3.22 -0.84 c-0.96 -0.58 -1.72 -1.36 -2.26 -2.34 s-0.82 -2.08 -0.82 -3.3 c0 -1.18 0.28 -2.28 0.84 -3.26 c0.56 -0.96 1.34 -1.74 2.3 -2.3 c0.98 -0.56 2.08 -0.84 3.24 -0.84 c0.88 0 1.74 0.2 2.58 0.56 c0.84 0.38 1.56 0.88 2.16 1.52 c0.08 0.1 0.08 0.24 0 0.34 l-1.9 1.56 c-0.06 0.06 -0.12 0.1 -0.2 0.1 s-0.16 -0.04 -0.2 -0.1 c-1.02 -1.24 -2.66 -1.5 -4.04 -0.64 c-1.2 0.74 -1.64 2.1 -1.58 3.46 c0.06 1.38 1.06 2.56 2.38 2.96 c1.2 0.36 2.38 0.08 3.24 -0.84 c0.06 -0.04 0.12 -0.08 0.2 -0.06 c0.08 0 0.14 0.02 0.18 0.08 l1.94 1.36 c0.08 0.1 0.08 0.24 0 0.34 c-0.64 0.68 -1.4 1.24 -2.24 1.64 c-0.86 0.4 -1.74 0.6 -2.6 0.6 z M82.72 20 c-1.2 0 -2.3 -0.28 -3.26 -0.84 c-0.98 -0.56 -1.76 -1.36 -2.34 -2.32 c-0.56 -0.98 -0.84 -2.1 -0.84 -3.3 c0 -1.18 0.28 -2.28 0.84 -3.26 c0.58 -0.98 1.34 -1.76 2.32 -2.32 s2.08 -0.84 3.28 -0.84 c1.18 0 2.28 0.28 3.26 0.84 s1.76 1.34 2.32 2.32 c0.58 0.98 0.86 2.08 0.86 3.26 c0 1.2 -0.28 2.3 -0.86 3.28 c-0.56 0.98 -1.34 1.76 -2.32 2.34 c-0.98 0.56 -2.08 0.84 -3.26 0.84 z M82.76 17.12 c0.58 0 1.12 -0.16 1.6 -0.46 c0.5 -0.32 0.9 -0.74 1.18 -1.3 c0.3 -0.54 0.44 -1.16 0.44 -1.82 c0 -0.64 -0.14 -1.26 -0.44 -1.8 c-0.28 -0.54 -0.68 -0.96 -1.18 -1.28 c-0.48 -0.3 -1.02 -0.46 -1.6 -0.46 c-0.6 0 -1.14 0.16 -1.64 0.46 c-0.52 0.32 -0.92 0.74 -1.22 1.28 c-0.3 0.56 -0.44 1.16 -0.44 1.8 c0 0.66 0.14 1.28 0.44 1.82 c0.32 0.54 0.72 0.98 1.22 1.28 c0.5 0.32 1.04 0.48 1.64 0.48 z M91.82000000000001 20 c-0.16 0 -0.26 -0.12 -0.26 -0.26 l0 -11.98 c0 -0.14 0.1 -0.26 0.26 -0.26 l4.88 0 c1.52 0 2.72 0.38 3.56 1.16 c1.24 1.12 1.66 3.24 1.06 4.8 c-0.22 0.56 -0.6 1.08 -1.08 1.46 c-0.28 0.22 -0.58 0.38 -0.88 0.54 c0.86 1.36 2.16 4.12 2.16 4.12 c0.02 0.04 0.06 0.1 0.06 0.16 c0 0.14 -0.12 0.26 -0.26 0.26 l-2.96 0 c-0.08 0 -0.18 -0.06 -0.22 -0.14 l-1.74 -3.82 c-0.62 0.04 -1.1 0.02 -1.74 0.02 l0 3.68 c0 0.14 -0.12 0.26 -0.26 0.26 l-2.58 0 z M94.66 13.280000000000001 c0 0 2.52 0.28 3.4 -0.3 c0.34 -0.22 0.54 -0.76 0.54 -1.16 c-0.02 -0.44 -0.24 -0.9 -0.6 -1.18 c-0.38 -0.32 -1.32 -0.42 -1.8 -0.42 l-1.54 0.04 l0 3.02 z M103.60000000000001 20 l0 -11.98 c0 -0.5 0.1 -0.6 0.26 -0.6 l8.76 0 c0.14 0 0.26 0.1 0.26 0.24 l0 2.26 c0 0.14 -0.12 0.26 -0.26 0.26 l-5.92 0 l0 2.08 l3.74 0 c0.14 0 0.26 0.12 0.26 0.26 l0 2.24 c0 0.14 -0.12 0.26 -0.26 0.26 l-3.74 0 l0 2.14 l5.9 0 c0.14 0 0.26 0.12 0.26 0.26 l0 2.24 c0 0.14 -0.12 0.26 -0.26 0.26 l-8.74 0 c-0.16 0 -0.26 -0.12 -0.26 0.08 z"/></g>
			</g>
		</svg>
	